<?xml version="1.0" encoding="utf-8"?>
<mlt LC_NUMERIC="zh_CN.UTF-8" version="6.4.1" root="/home/Menci/Videos/WC2018" title="Anonymous Submission" producer="main bin">
  <profile description="HD 1080i 25 fps" width="1920" height="1080" progressive="0" sample_aspect_num="1" sample_aspect_den="1" display_aspect_num="16" display_aspect_den="9" frame_rate_num="25" frame_rate_den="1" colorspace="709"/>
  <producer id="2" in="0" out="189">
    <property name="length">190</property>
    <property name="eof">pause</property>
    <property name="resource">images/firstlast cf 提交记录.png</property>
    <property name="ttl">25</property>
    <property name="aspect_ratio">1</property>
    <property name="progressive">1</property>
    <property name="seekable">1</property>
    <property name="loop">1</property>
    <property name="mlt_service">pixbuf</property>
    <property name="kdenlive:folderid">1</property>
    <property name="kdenlive:duration">125</property>
    <property name="kdenlive:file_size">1521176</property>
    <property name="kdenlive:file_hash">6e9f2ffe9fe6c8b060ebbd871c17a3e6</property>
  </producer>
  <producer id="3" in="0" out="124">
    <property name="length">125</property>
    <property name="eof">pause</property>
    <property name="resource">images/ldz CF.png</property>
    <property name="ttl">25</property>
    <property name="aspect_ratio">1</property>
    <property name="progressive">1</property>
    <property name="seekable">1</property>
    <property name="loop">1</property>
    <property name="mlt_service">pixbuf</property>
    <property name="kdenlive:folderid">1</property>
    <property name="kdenlive:duration">125</property>
    <property name="kdenlive:file_size">372076</property>
    <property name="kdenlive:file_hash">64200309bc70ea8d92a27322e5168889</property>
  </producer>
  <producer id="4" in="0" out="193">
    <property name="length">194</property>
    <property name="eof">pause</property>
    <property name="resource">images/Menci 写挂的暴力.png</property>
    <property name="ttl">25</property>
    <property name="aspect_ratio">1</property>
    <property name="progressive">1</property>
    <property name="seekable">1</property>
    <property name="loop">1</property>
    <property name="mlt_service">pixbuf</property>
    <property name="kdenlive:folderid">1</property>
    <property name="kdenlive:duration">125</property>
    <property name="kdenlive:file_size">747396</property>
    <property name="kdenlive:file_hash">9b6f553f9bf280ee43b61d6776b87448</property>
  </producer>
  <producer id="5" in="0" out="186">
    <property name="length">187</property>
    <property name="eof">pause</property>
    <property name="resource">images/ratings.png</property>
    <property name="ttl">25</property>
    <property name="aspect_ratio">1</property>
    <property name="progressive">1</property>
    <property name="seekable">1</property>
    <property name="loop">1</property>
    <property name="mlt_service">pixbuf</property>
    <property name="kdenlive:folderid">1</property>
    <property name="kdenlive:duration">125</property>
    <property name="kdenlive:file_size">234527</property>
    <property name="kdenlive:file_hash">0a13364c7d245febd48dda483f25db6d</property>
  </producer>
  <producer id="6" in="0" out="180">
    <property name="length">181</property>
    <property name="eof">pause</property>
    <property name="resource">images/Sengxian笔记.png</property>
    <property name="ttl">25</property>
    <property name="aspect_ratio">1</property>
    <property name="progressive">1</property>
    <property name="seekable">1</property>
    <property name="loop">1</property>
    <property name="mlt_service">pixbuf</property>
    <property name="kdenlive:folderid">1</property>
    <property name="kdenlive:duration">125</property>
    <property name="kdenlive:file_size">1709747</property>
    <property name="kdenlive:file_hash">3b83c2602874e2c469318b616bab8e83</property>
  </producer>
  <producer id="7" in="0" out="190">
    <property name="length">191</property>
    <property name="eof">pause</property>
    <property name="resource">images/yuno毒瘤.png</property>
    <property name="ttl">25</property>
    <property name="aspect_ratio">1</property>
    <property name="progressive">1</property>
    <property name="seekable">1</property>
    <property name="loop">1</property>
    <property name="mlt_service">pixbuf</property>
    <property name="kdenlive:folderid">1</property>
    <property name="kdenlive:duration">125</property>
    <property name="kdenlive:file_size">2365063</property>
    <property name="kdenlive:file_hash">13f36d4b1c08ef1c3340de907b18a603</property>
  </producer>
  <producer id="8" in="0" out="182">
    <property name="length">183</property>
    <property name="eof">pause</property>
    <property name="resource">images/yuno毒瘤loj.png</property>
    <property name="ttl">25</property>
    <property name="aspect_ratio">1</property>
    <property name="progressive">1</property>
    <property name="seekable">1</property>
    <property name="loop">1</property>
    <property name="mlt_service">pixbuf</property>
    <property name="kdenlive:folderid">1</property>
    <property name="kdenlive:duration">125</property>
    <property name="kdenlive:file_size">824301</property>
    <property name="kdenlive:file_hash">bc0dd321ef901d5e12a5ccbd2910b9fa</property>
  </producer>
  <producer id="10" in="0" out="6200">
    <property name="length">6201</property>
    <property name="eof">pause</property>
    <property name="resource">images/bkg.png</property>
    <property name="ttl">25</property>
    <property name="aspect_ratio">1</property>
    <property name="progressive">1</property>
    <property name="seekable">1</property>
    <property name="loop">1</property>
    <property name="mlt_service">pixbuf</property>
    <property name="kdenlive:folderid">-1</property>
    <property name="kdenlive:duration">125</property>
    <property name="kdenlive:file_size">871167</property>
    <property name="kdenlive:file_hash">86468b09a4d5cfc9e5f0deeaf4bdfd1c</property>
  </producer>
  <producer id="12" title="Anonymous Submission" in="0" out="206">
    <property name="length">207</property>
    <property name="eof">pause</property>
    <property name="resource"></property>
    <property name="progressive">1</property>
    <property name="aspect_ratio">1</property>
    <property name="seekable">1</property>
    <property name="mlt_service">kdenlivetitle</property>
    <property name="kdenlive:clipname">明天你是否会想起</property>
    <property name="kdenlive:folderid">2</property>
    <property name="xmldata">&lt;kdenlivetitle width="1920" duration="125" out="125" height="1080" LC_NUMERIC="zh_CN.UTF-8"&gt;
 &lt;item z-index="0" type="QGraphicsTextItem"&gt;
  &lt;position x="480" y="913"&gt;
   &lt;transform&gt;1,0,0,0,1,0,0,0,1&lt;/transform&gt;
  &lt;/position&gt;
  &lt;content font-italic="0" letter-spacing="0" font-weight="50" box-height="120" font-outline-color="255,255,255,255" shadow="0;#64000000;3;3;3" font="MF TongZhen (Noncommercial)" font-underline="0" font-outline="0.2" font-pixel-size="120" line-spacing="0" box-width="959.875" font-color="83,83,83,255" alignment="4"&gt;明天你是否会想起&lt;/content&gt;
 &lt;/item&gt;
 &lt;startviewport rect="0,0,1920,1080"/&gt;
 &lt;endviewport rect="0,0,1920,1080"/&gt;
 &lt;background color="0,0,0,0"/&gt;
&lt;/kdenlivetitle&gt;
</property>
    <property name="kdenlive:duration">125</property>
    <property name="force_reload">0</property>
    <property name="kdenlive:file_hash">aaa0b54e381e82ff733c3000dbbe5493</property>
    <property name="global_feed">1</property>
  </producer>
  <producer id="13" title="Anonymous Submission" in="0" out="235">
    <property name="length">236</property>
    <property name="eof">pause</property>
    <property name="resource"></property>
    <property name="progressive">1</property>
    <property name="aspect_ratio">1</property>
    <property name="seekable">1</property>
    <property name="mlt_service">kdenlivetitle</property>
    <property name="kdenlive:clipname">标题</property>
    <property name="kdenlive:folderid">4</property>
    <property name="xmldata">&lt;kdenlivetitle width="1920" duration="125" out="125" height="1080" LC_NUMERIC="zh_CN.UTF-8"&gt;
 &lt;item z-index="1" type="QGraphicsTextItem"&gt;
  &lt;position x="526" y="681"&gt;
   &lt;transform&gt;1,0,0,0,1,0,0,0,1&lt;/transform&gt;
  &lt;/position&gt;
  &lt;content font-italic="0" letter-spacing="0" font-weight="50" box-height="70" font-outline-color="255,255,255,255" shadow="0;#64000000;3;3;3" font="MF TongZhen (Noncommercial)" font-underline="0" font-outline="0.2" font-pixel-size="70" line-spacing="0" box-width="867.781" font-color="83,83,83,255" alignment="1"&gt;——改编自高晓松《同桌的你》&lt;/content&gt;
 &lt;/item&gt;
 &lt;item z-index="0" type="QGraphicsTextItem"&gt;
  &lt;position x="560" y="351"&gt;
   &lt;transform&gt;1,0,0,0,1,0,0,0,1&lt;/transform&gt;
  &lt;/position&gt;
  &lt;content font-italic="0" letter-spacing="0" font-weight="50" box-height="200" font-outline-color="255,255,255,255" shadow="0;#64000000;3;3;3" font="MF TongZhen (Noncommercial)" font-underline="0" font-outline="0.2" font-pixel-size="200" line-spacing="0" box-width="800" font-color="83,83,83,255" alignment="1"&gt;退役的你&lt;/content&gt;
 &lt;/item&gt;
 &lt;startviewport rect="0,0,1920,1080"/&gt;
 &lt;endviewport rect="0,0,1920,1080"/&gt;
 &lt;background color="0,0,0,0"/&gt;
&lt;/kdenlivetitle&gt;
</property>
    <property name="kdenlive:duration">125</property>
    <property name="force_reload">0</property>
    <property name="kdenlive:file_hash">68288c7f799e19e05ce85bb15617061d</property>
    <property name="global_feed">1</property>
  </producer>
  <producer id="14" title="Anonymous Submission" in="0" out="241">
    <property name="length">242</property>
    <property name="eof">pause</property>
    <property name="resource"></property>
    <property name="progressive">1</property>
    <property name="aspect_ratio">1</property>
    <property name="seekable">1</property>
    <property name="mlt_service">kdenlivetitle</property>
    <property name="kdenlive:clipname">名单</property>
    <property name="kdenlive:folderid">4</property>
    <property name="xmldata">&lt;kdenlivetitle width="1920" duration="125" out="125" height="1080" LC_NUMERIC="zh_CN.UTF-8"&gt;
 &lt;item z-index="3" type="QGraphicsTextItem"&gt;
  &lt;position x="548" y="467"&gt;
   &lt;transform&gt;1,0,0,0,1,0,0,0,1&lt;/transform&gt;
  &lt;/position&gt;
  &lt;content font-italic="0" letter-spacing="0" font-weight="50" box-height="280" font-outline-color="255,255,255,255" shadow="0;#64000000;3;3;3" font="MF TongZhen (Noncommercial)" font-underline="0" font-outline="0.2" font-pixel-size="70" box-width="1015.94" font-color="83,83,83,255" alignment="1"&gt;成都七中 王修涵（wxh010910）
淮阴中学 杨乾澜（yanQval）
长乐一中 王颖
中山纪中 王之栋（WerKeyTom_FTD）&lt;/content&gt;
 &lt;/item&gt;
 &lt;item z-index="2" type="QGraphicsTextItem"&gt;
  &lt;position x="366" y="327"&gt;
   &lt;transform&gt;1,0,0,0,1,0,0,0,1&lt;/transform&gt;
  &lt;/position&gt;
  &lt;content font-italic="0" letter-spacing="0" font-weight="50" box-height="210" font-outline-color="255,255,255,255" shadow="0;#64000000;3;3;3" font="MF TongZhen (Noncommercial)" font-underline="0" font-outline="0.2" font-pixel-size="70" box-width="914.531" font-color="83,83,83,255" alignment="1"&gt;填词：临沂一中 黄浩睿（Menci）
视频：临沂一中 黄浩睿（Menci）
演唱：&lt;/content&gt;
 &lt;/item&gt;
 &lt;startviewport rect="0,0,1920,1080"/&gt;
 &lt;endviewport rect="0,0,1920,1080"/&gt;
 &lt;background color="0,0,0,0"/&gt;
&lt;/kdenlivetitle&gt;
</property>
    <property name="kdenlive:duration">125</property>
    <property name="force_reload">0</property>
    <property name="kdenlive:file_hash">8e2d007083ce9904ece5fc422dbb6413</property>
    <property name="global_feed">1</property>
  </producer>
  <producer id="15" title="Anonymous Submission" in="0" out="206">
    <property name="length">207</property>
    <property name="eof">pause</property>
    <property name="resource"></property>
    <property name="progressive">1</property>
    <property name="aspect_ratio">1</property>
    <property name="seekable">1</property>
    <property name="mlt_service">kdenlivetitle</property>
    <property name="kdenlive:clipname">昨天未调完的题</property>
    <property name="kdenlive:folderid">2</property>
    <property name="xmldata">&lt;kdenlivetitle width="1920" duration="125" out="125" height="1080" LC_NUMERIC="zh_CN.UTF-8"&gt;
 &lt;item z-index="0" type="QGraphicsTextItem"&gt;
  &lt;position x="540" y="913"&gt;
   &lt;transform&gt;1,0,0,0,1,0,0,0,1&lt;/transform&gt;
  &lt;/position&gt;
  &lt;content font-italic="0" letter-spacing="0" font-weight="50" box-height="120" font-outline-color="255,255,255,255" shadow="0;#64000000;3;3;3" font="MF TongZhen (Noncommercial)" font-underline="0" font-outline="0.2" font-pixel-size="120" line-spacing="0" box-width="839.891" font-color="83,83,83,255" alignment="4"&gt;昨天未调完的题&lt;/content&gt;
 &lt;/item&gt;
 &lt;startviewport rect="0,0,1920,1080"/&gt;
 &lt;endviewport rect="0,0,1920,1080"/&gt;
 &lt;background color="0,0,0,0"/&gt;
&lt;/kdenlivetitle&gt;
</property>
    <property name="kdenlive:duration">125</property>
    <property name="force_reload">0</property>
    <property name="kdenlive:file_hash">835b427e3f34fe6ea85bdf401431c5b9</property>
    <property name="global_feed">1</property>
  </producer>
  <producer id="16" title="Anonymous Submission" in="0" out="206">
    <property name="length">207</property>
    <property name="eof">pause</property>
    <property name="resource"></property>
    <property name="progressive">1</property>
    <property name="aspect_ratio">1</property>
    <property name="seekable">1</property>
    <property name="mlt_service">kdenlivetitle</property>
    <property name="kdenlive:clipname">明天你是否还惦记</property>
    <property name="kdenlive:folderid">2</property>
    <property name="xmldata">&lt;kdenlivetitle width="1920" duration="125" out="125" height="1080" LC_NUMERIC="zh_CN.UTF-8"&gt;
 &lt;item z-index="0" type="QGraphicsTextItem"&gt;
  &lt;position x="480" y="913"&gt;
   &lt;transform&gt;1,0,0,0,1,0,0,0,1&lt;/transform&gt;
  &lt;/position&gt;
  &lt;content font-italic="0" letter-spacing="0" font-weight="50" box-height="120" font-outline-color="255,255,255,255" shadow="0;#64000000;3;3;3" font="MF TongZhen (Noncommercial)" font-underline="0" font-outline="0.2" font-pixel-size="120" line-spacing="0" box-width="959.875" font-color="83,83,83,255" alignment="4"&gt;明天你是否还惦记&lt;/content&gt;
 &lt;/item&gt;
 &lt;startviewport rect="0,0,1920,1080"/&gt;
 &lt;endviewport rect="0,0,1920,1080"/&gt;
 &lt;background color="0,0,0,0"/&gt;
&lt;/kdenlivetitle&gt;
</property>
    <property name="kdenlive:duration">125</property>
    <property name="force_reload">0</property>
    <property name="kdenlive:file_hash">835b427e3f34fe6ea85bdf401431c5b9</property>
    <property name="global_feed">1</property>
  </producer>
  <producer id="17" title="Anonymous Submission" in="0" out="206">
    <property name="length">207</property>
    <property name="eof">pause</property>
    <property name="resource"></property>
    <property name="progressive">1</property>
    <property name="aspect_ratio">1</property>
    <property name="seekable">1</property>
    <property name="mlt_service">kdenlivetitle</property>
    <property name="kdenlive:clipname">考场写挂的暴力</property>
    <property name="kdenlive:folderid">2</property>
    <property name="xmldata">&lt;kdenlivetitle width="1920" duration="125" out="125" height="1080" LC_NUMERIC="zh_CN.UTF-8"&gt;
 &lt;item z-index="0" type="QGraphicsTextItem"&gt;
  &lt;position x="540" y="913"&gt;
   &lt;transform&gt;1,0,0,0,1,0,0,0,1&lt;/transform&gt;
  &lt;/position&gt;
  &lt;content font-italic="0" letter-spacing="0" font-weight="50" box-height="120" font-outline-color="255,255,255,255" shadow="0;#64000000;3;3;3" font="MF TongZhen (Noncommercial)" font-underline="0" font-outline="0.2" font-pixel-size="120" line-spacing="0" box-width="839.891" font-color="83,83,83,255" alignment="4"&gt;考场写挂的暴力&lt;/content&gt;
 &lt;/item&gt;
 &lt;startviewport rect="0,0,1920,1080"/&gt;
 &lt;endviewport rect="0,0,1920,1080"/&gt;
 &lt;background color="0,0,0,0"/&gt;
&lt;/kdenlivetitle&gt;
</property>
    <property name="kdenlive:duration">125</property>
    <property name="force_reload">0</property>
    <property name="kdenlive:file_hash">ff041c7d7b8b2e8e3f822b469edaa909</property>
    <property name="global_feed">1</property>
  </producer>
  <producer id="19" title="Anonymous Submission" in="0" out="206">
    <property name="length">207</property>
    <property name="eof">pause</property>
    <property name="resource"></property>
    <property name="progressive">1</property>
    <property name="aspect_ratio">1</property>
    <property name="seekable">1</property>
    <property name="mlt_service">kdenlivetitle</property>
    <property name="kdenlive:clipname">集训队都已想不起</property>
    <property name="kdenlive:folderid">2</property>
    <property name="xmldata">&lt;kdenlivetitle width="1920" duration="125" out="125" height="1080" LC_NUMERIC="zh_CN.UTF-8"&gt;
 &lt;item z-index="0" type="QGraphicsTextItem"&gt;
  &lt;position x="480" y="913"&gt;
   &lt;transform&gt;1,0,0,0,1,0,0,0,1&lt;/transform&gt;
  &lt;/position&gt;
  &lt;content font-italic="0" letter-spacing="0" font-weight="50" box-height="120" font-outline-color="255,255,255,255" shadow="0;#64000000;3;3;3" font="MF TongZhen (Noncommercial)" font-underline="0" font-outline="0.2" font-pixel-size="120" line-spacing="0" box-width="959.875" font-color="83,83,83,255" alignment="4"&gt;集训队都已想不起&lt;/content&gt;
 &lt;/item&gt;
 &lt;startviewport rect="0,0,1920,1080"/&gt;
 &lt;endviewport rect="0,0,1920,1080"/&gt;
 &lt;background color="0,0,0,0"/&gt;
&lt;/kdenlivetitle&gt;
</property>
    <property name="kdenlive:duration">125</property>
    <property name="force_reload">0</property>
    <property name="kdenlive:file_hash">ff041c7d7b8b2e8e3f822b469edaa909</property>
    <property name="global_feed">1</property>
  </producer>
  <producer id="20" title="Anonymous Submission" in="0" out="206">
    <property name="length">207</property>
    <property name="eof">pause</property>
    <property name="resource"></property>
    <property name="progressive">1</property>
    <property name="aspect_ratio">1</property>
    <property name="seekable">1</property>
    <property name="mlt_service">kdenlivetitle</property>
    <property name="kdenlive:clipname">没能来雅礼的你</property>
    <property name="kdenlive:folderid">2</property>
    <property name="xmldata">&lt;kdenlivetitle width="1920" duration="125" out="125" height="1080" LC_NUMERIC="zh_CN.UTF-8"&gt;
 &lt;item z-index="0" type="QGraphicsTextItem"&gt;
  &lt;position x="540" y="913"&gt;
   &lt;transform&gt;1,0,0,0,1,0,0,0,1&lt;/transform&gt;
  &lt;/position&gt;
  &lt;content font-italic="0" letter-spacing="0" font-weight="50" box-height="120" font-outline-color="255,255,255,255" shadow="0;#64000000;3;3;3" font="MF TongZhen (Noncommercial)" font-underline="0" font-outline="0.2" font-pixel-size="120" line-spacing="0" box-width="839.891" font-color="83,83,83,255" alignment="4"&gt;没能来雅礼的你&lt;/content&gt;
 &lt;/item&gt;
 &lt;startviewport rect="0,0,1920,1080"/&gt;
 &lt;endviewport rect="0,0,1920,1080"/&gt;
 &lt;background color="0,0,0,0"/&gt;
&lt;/kdenlivetitle&gt;
</property>
    <property name="kdenlive:duration">125</property>
    <property name="force_reload">0</property>
    <property name="kdenlive:file_hash">ff041c7d7b8b2e8e3f822b469edaa909</property>
    <property name="global_feed">1</property>
  </producer>
  <producer id="21" title="Anonymous Submission" in="0" out="206">
    <property name="length">207</property>
    <property name="eof">pause</property>
    <property name="resource"></property>
    <property name="progressive">1</property>
    <property name="aspect_ratio">1</property>
    <property name="seekable">1</property>
    <property name="mlt_service">kdenlivetitle</property>
    <property name="kdenlive:clipname">我也是偶然翻 OJ</property>
    <property name="kdenlive:folderid">2</property>
    <property name="xmldata">&lt;kdenlivetitle width="1920" duration="125" out="125" height="1080" LC_NUMERIC="zh_CN.UTF-8"&gt;
 &lt;item z-index="0" type="QGraphicsTextItem"&gt;
  &lt;position x="530" y="913"&gt;
   &lt;transform&gt;1,0,0,0,1,0,0,0,1&lt;/transform&gt;
  &lt;/position&gt;
  &lt;content font-italic="0" letter-spacing="0" font-weight="50" box-height="120" font-outline-color="255,255,255,255" shadow="0;#64000000;3;3;3" font="MF TongZhen (Noncommercial)" font-underline="0" font-outline="0.2" font-pixel-size="120" line-spacing="0" box-width="859.672" font-color="83,83,83,255" alignment="4"&gt;我也是偶然翻 OJ&lt;/content&gt;
 &lt;/item&gt;
 &lt;startviewport rect="0,0,1920,1080"/&gt;
 &lt;endviewport rect="0,0,1920,1080"/&gt;
 &lt;background color="0,0,0,0"/&gt;
&lt;/kdenlivetitle&gt;
</property>
    <property name="kdenlive:duration">125</property>
    <property name="force_reload">0</property>
    <property name="kdenlive:file_hash">ff041c7d7b8b2e8e3f822b469edaa909</property>
    <property name="global_feed">1</property>
  </producer>
  <producer id="22" title="Anonymous Submission" in="0" out="206">
    <property name="length">207</property>
    <property name="eof">pause</property>
    <property name="resource"></property>
    <property name="progressive">1</property>
    <property name="aspect_ratio">1</property>
    <property name="seekable">1</property>
    <property name="mlt_service">kdenlivetitle</property>
    <property name="kdenlive:clipname">才想起退役的你</property>
    <property name="kdenlive:folderid">2</property>
    <property name="xmldata">&lt;kdenlivetitle width="1920" duration="125" out="125" height="1080" LC_NUMERIC="zh_CN.UTF-8"&gt;
 &lt;item z-index="0" type="QGraphicsTextItem"&gt;
  &lt;position x="540" y="913"&gt;
   &lt;transform&gt;1,0,0,0,1,0,0,0,1&lt;/transform&gt;
  &lt;/position&gt;
  &lt;content font-italic="0" letter-spacing="0" font-weight="50" box-height="120" font-outline-color="255,255,255,255" shadow="0;#64000000;3;3;3" font="MF TongZhen (Noncommercial)" font-underline="0" font-outline="0.2" font-pixel-size="120" line-spacing="0" box-width="839.891" font-color="83,83,83,255" alignment="4"&gt;才想起退役的你&lt;/content&gt;
 &lt;/item&gt;
 &lt;startviewport rect="0,0,1920,1080"/&gt;
 &lt;endviewport rect="0,0,1920,1080"/&gt;
 &lt;background color="0,0,0,0"/&gt;
&lt;/kdenlivetitle&gt;
</property>
    <property name="kdenlive:duration">125</property>
    <property name="force_reload">0</property>
    <property name="kdenlive:file_hash">ff041c7d7b8b2e8e3f822b469edaa909</property>
    <property name="global_feed">1</property>
  </producer>
  <producer id="23" title="Anonymous Submission" in="0" out="206">
    <property name="length">207</property>
    <property name="eof">pause</property>
    <property name="resource"></property>
    <property name="progressive">1</property>
    <property name="aspect_ratio">1</property>
    <property name="seekable">1</property>
    <property name="mlt_service">kdenlivetitle</property>
    <property name="kdenlive:clipname">谁羡慕比赛 AK 的你</property>
    <property name="kdenlive:folderid">2</property>
    <property name="xmldata">&lt;kdenlivetitle width="1920" duration="125" out="125" height="1080" LC_NUMERIC="zh_CN.UTF-8"&gt;
 &lt;item z-index="0" type="QGraphicsTextItem"&gt;
  &lt;position x="451" y="913"&gt;
   &lt;transform&gt;1,0,0,0,1,0,0,0,1&lt;/transform&gt;
  &lt;/position&gt;
  &lt;content font-italic="0" letter-spacing="0" font-weight="50" box-height="120" font-outline-color="255,255,255,255" shadow="0;#64000000;3;3;3" font="MF TongZhen (Noncommercial)" font-underline="0" font-outline="0.2" font-pixel-size="120" line-spacing="0" box-width="1018.89" font-color="83,83,83,255" alignment="4"&gt;谁羡慕比赛 AK 的你&lt;/content&gt;
 &lt;/item&gt;
 &lt;startviewport rect="0,0,1920,1080"/&gt;
 &lt;endviewport rect="0,0,1920,1080"/&gt;
 &lt;background color="0,0,0,0"/&gt;
&lt;/kdenlivetitle&gt;
</property>
    <property name="kdenlive:duration">125</property>
    <property name="force_reload">0</property>
    <property name="kdenlive:file_hash">ff041c7d7b8b2e8e3f822b469edaa909</property>
    <property name="global_feed">1</property>
  </producer>
  <producer id="24" title="Anonymous Submission" in="0" out="206">
    <property name="length">207</property>
    <property name="eof">pause</property>
    <property name="resource"></property>
    <property name="progressive">1</property>
    <property name="aspect_ratio">1</property>
    <property name="seekable">1</property>
    <property name="mlt_service">kdenlivetitle</property>
    <property name="kdenlive:clipname">谁膜拜红名的你</property>
    <property name="kdenlive:folderid">2</property>
    <property name="xmldata">&lt;kdenlivetitle width="1920" duration="125" out="125" height="1080" LC_NUMERIC="zh_CN.UTF-8"&gt;
 &lt;item z-index="0" type="QGraphicsTextItem"&gt;
  &lt;position x="540" y="913"&gt;
   &lt;transform&gt;1,0,0,0,1,0,0,0,1&lt;/transform&gt;
  &lt;/position&gt;
  &lt;content font-italic="0" letter-spacing="0" font-weight="50" box-height="120" font-outline-color="255,255,255,255" shadow="0;#64000000;3;3;3" font="MF TongZhen (Noncommercial)" font-underline="0" font-outline="0.2" font-pixel-size="120" line-spacing="0" box-width="839.891" font-color="83,83,83,255" alignment="4"&gt;谁膜拜红名的你&lt;/content&gt;
 &lt;/item&gt;
 &lt;startviewport rect="0,0,1920,1080"/&gt;
 &lt;endviewport rect="0,0,1920,1080"/&gt;
 &lt;background color="0,0,0,0"/&gt;
&lt;/kdenlivetitle&gt;
</property>
    <property name="kdenlive:duration">125</property>
    <property name="force_reload">0</property>
    <property name="kdenlive:file_hash">ff041c7d7b8b2e8e3f822b469edaa909</property>
    <property name="global_feed">1</property>
  </producer>
  <producer id="25" title="Anonymous Submission" in="0" out="206">
    <property name="length">207</property>
    <property name="eof">pause</property>
    <property name="resource"></property>
    <property name="progressive">1</property>
    <property name="aspect_ratio">1</property>
    <property name="seekable">1</property>
    <property name="mlt_service">kdenlivetitle</property>
    <property name="kdenlive:clipname">谁看了你的生涯回忆</property>
    <property name="kdenlive:folderid">2</property>
    <property name="xmldata">&lt;kdenlivetitle width="1920" duration="125" out="125" height="1080" LC_NUMERIC="zh_CN.UTF-8"&gt;
 &lt;item z-index="0" type="QGraphicsTextItem"&gt;
  &lt;position x="420" y="913"&gt;
   &lt;transform&gt;1,0,0,0,1,0,0,0,1&lt;/transform&gt;
  &lt;/position&gt;
  &lt;content font-italic="0" letter-spacing="0" font-weight="50" box-height="120" font-outline-color="255,255,255,255" shadow="0;#64000000;3;3;3" font="MF TongZhen (Noncommercial)" font-underline="0" font-outline="0.2" font-pixel-size="120" line-spacing="0" box-width="1079.86" font-color="83,83,83,255" alignment="4"&gt;谁看了你的生涯回忆&lt;/content&gt;
 &lt;/item&gt;
 &lt;startviewport rect="0,0,1920,1080"/&gt;
 &lt;endviewport rect="0,0,1920,1080"/&gt;
 &lt;background color="0,0,0,0"/&gt;
&lt;/kdenlivetitle&gt;
</property>
    <property name="kdenlive:duration">125</property>
    <property name="force_reload">0</property>
    <property name="kdenlive:file_hash">ff041c7d7b8b2e8e3f822b469edaa909</property>
    <property name="global_feed">1</property>
  </producer>
  <producer id="26" title="Anonymous Submission" in="0" out="206">
    <property name="length">207</property>
    <property name="eof">pause</property>
    <property name="resource"></property>
    <property name="progressive">1</property>
    <property name="aspect_ratio">1</property>
    <property name="seekable">1</property>
    <property name="mlt_service">kdenlivetitle</property>
    <property name="kdenlive:clipname">谁借走你的 RP</property>
    <property name="kdenlive:folderid">2</property>
    <property name="xmldata">&lt;kdenlivetitle width="1920" duration="125" out="125" height="1080" LC_NUMERIC="zh_CN.UTF-8"&gt;
 &lt;item z-index="0" type="QGraphicsTextItem"&gt;
  &lt;position x="588" y="913"&gt;
   &lt;transform&gt;1,0,0,0,1,0,0,0,1&lt;/transform&gt;
  &lt;/position&gt;
  &lt;content font-italic="0" letter-spacing="0" font-weight="50" box-height="120" font-outline-color="255,255,255,255" shadow="0;#64000000;3;3;3" font="MF TongZhen (Noncommercial)" font-underline="0" font-outline="0.2" font-pixel-size="120" line-spacing="0" box-width="744.016" font-color="83,83,83,255" alignment="4"&gt;谁借走你的 RP&lt;/content&gt;
 &lt;/item&gt;
 &lt;startviewport rect="0,0,1920,1080"/&gt;
 &lt;endviewport rect="0,0,1920,1080"/&gt;
 &lt;background color="0,0,0,0"/&gt;
&lt;/kdenlivetitle&gt;
</property>
    <property name="kdenlive:duration">125</property>
    <property name="force_reload">0</property>
    <property name="kdenlive:file_hash">ff041c7d7b8b2e8e3f822b469edaa909</property>
    <property name="global_feed">1</property>
  </producer>
  <producer id="27" title="Anonymous Submission" in="0" out="206">
    <property name="length">207</property>
    <property name="eof">pause</property>
    <property name="resource"></property>
    <property name="progressive">1</property>
    <property name="aspect_ratio">1</property>
    <property name="seekable">1</property>
    <property name="mlt_service">kdenlivetitle</property>
    <property name="kdenlive:clipname">你从前总是很小心</property>
    <property name="kdenlive:folderid">2</property>
    <property name="xmldata">&lt;kdenlivetitle width="1920" duration="125" out="125" height="1080" LC_NUMERIC="zh_CN.UTF-8"&gt;
 &lt;item z-index="0" type="QGraphicsTextItem"&gt;
  &lt;position x="480" y="913"&gt;
   &lt;transform&gt;1,0,0,0,1,0,0,0,1&lt;/transform&gt;
  &lt;/position&gt;
  &lt;content font-italic="0" letter-spacing="0" font-weight="50" box-height="120" font-outline-color="255,255,255,255" shadow="0;#64000000;3;3;3" font="MF TongZhen (Noncommercial)" font-underline="0" font-outline="0.2" font-pixel-size="120" line-spacing="0" box-width="959.875" font-color="83,83,83,255" alignment="4"&gt;你从前总是很小心&lt;/content&gt;
 &lt;/item&gt;
 &lt;startviewport rect="0,0,1920,1080"/&gt;
 &lt;endviewport rect="0,0,1920,1080"/&gt;
 &lt;background color="0,0,0,0"/&gt;
&lt;/kdenlivetitle&gt;
</property>
    <property name="kdenlive:duration">125</property>
    <property name="force_reload">0</property>
    <property name="kdenlive:file_hash">aaa0b54e381e82ff733c3000dbbe5493</property>
    <property name="global_feed">1</property>
  </producer>
  <producer id="28" title="Anonymous Submission" in="0" out="206">
    <property name="length">207</property>
    <property name="eof">pause</property>
    <property name="resource"></property>
    <property name="progressive">1</property>
    <property name="aspect_ratio">1</property>
    <property name="seekable">1</property>
    <property name="mlt_service">kdenlivetitle</property>
    <property name="kdenlive:clipname">对拍后才肯交题</property>
    <property name="kdenlive:folderid">2</property>
    <property name="xmldata">&lt;kdenlivetitle width="1920" duration="125" out="125" height="1080" LC_NUMERIC="zh_CN.UTF-8"&gt;
 &lt;item z-index="0" type="QGraphicsTextItem"&gt;
  &lt;position x="540" y="913"&gt;
   &lt;transform&gt;1,0,0,0,1,0,0,0,1&lt;/transform&gt;
  &lt;/position&gt;
  &lt;content font-italic="0" letter-spacing="0" font-weight="50" box-height="120" font-outline-color="255,255,255,255" shadow="0;#64000000;3;3;3" font="MF TongZhen (Noncommercial)" font-underline="0" font-outline="0.2" font-pixel-size="120" line-spacing="0" box-width="839.891" font-color="83,83,83,255" alignment="4"&gt;对拍后才肯交题&lt;/content&gt;
 &lt;/item&gt;
 &lt;startviewport rect="0,0,1920,1080"/&gt;
 &lt;endviewport rect="0,0,1920,1080"/&gt;
 &lt;background color="0,0,0,0"/&gt;
&lt;/kdenlivetitle&gt;
</property>
    <property name="kdenlive:duration">125</property>
    <property name="force_reload">0</property>
    <property name="kdenlive:file_hash">ff041c7d7b8b2e8e3f822b469edaa909</property>
    <property name="global_feed">1</property>
  </producer>
  <producer id="29" title="Anonymous Submission" in="0" out="206">
    <property name="length">207</property>
    <property name="eof">pause</property>
    <property name="resource"></property>
    <property name="progressive">1</property>
    <property name="aspect_ratio">1</property>
    <property name="seekable">1</property>
    <property name="mlt_service">kdenlivetitle</property>
    <property name="kdenlive:clipname">你也曾无意中说起</property>
    <property name="kdenlive:folderid">2</property>
    <property name="xmldata">&lt;kdenlivetitle width="1920" duration="125" out="125" height="1080" LC_NUMERIC="zh_CN.UTF-8"&gt;
 &lt;item z-index="0" type="QGraphicsTextItem"&gt;
  &lt;position x="480" y="913"&gt;
   &lt;transform&gt;1,0,0,0,1,0,0,0,1&lt;/transform&gt;
  &lt;/position&gt;
  &lt;content font-italic="0" letter-spacing="0" font-weight="50" box-height="120" font-outline-color="255,255,255,255" shadow="0;#64000000;3;3;3" font="MF TongZhen (Noncommercial)" font-underline="0" font-outline="0.2" font-pixel-size="120" line-spacing="0" box-width="959.875" font-color="83,83,83,255" alignment="4"&gt;你也曾无意中说起&lt;/content&gt;
 &lt;/item&gt;
 &lt;startviewport rect="0,0,1920,1080"/&gt;
 &lt;endviewport rect="0,0,1920,1080"/&gt;
 &lt;background color="0,0,0,0"/&gt;
&lt;/kdenlivetitle&gt;
</property>
    <property name="kdenlive:duration">125</property>
    <property name="force_reload">0</property>
    <property name="kdenlive:file_hash">aaa0b54e381e82ff733c3000dbbe5493</property>
    <property name="global_feed">1</property>
  </producer>
  <producer id="30" title="Anonymous Submission" in="0" out="206">
    <property name="length">207</property>
    <property name="eof">pause</property>
    <property name="resource"></property>
    <property name="progressive">1</property>
    <property name="aspect_ratio">1</property>
    <property name="seekable">1</property>
    <property name="mlt_service">kdenlivetitle</property>
    <property name="kdenlive:clipname">喜欢在深夜 AC</property>
    <property name="kdenlive:folderid">2</property>
    <property name="xmldata">&lt;kdenlivetitle width="1920" duration="125" out="125" height="1080" LC_NUMERIC="zh_CN.UTF-8"&gt;
 &lt;item z-index="0" type="QGraphicsTextItem"&gt;
  &lt;position x="582" y="913"&gt;
   &lt;transform&gt;1,0,0,0,1,0,0,0,1&lt;/transform&gt;
  &lt;/position&gt;
  &lt;content font-italic="0" letter-spacing="0" font-weight="50" box-height="120" font-outline-color="255,255,255,255" shadow="0;#64000000;3;3;3" font="MF TongZhen (Noncommercial)" font-underline="0" font-outline="0.2" font-pixel-size="120" line-spacing="0" box-width="756.016" font-color="83,83,83,255" alignment="4"&gt;喜欢在深夜 AC&lt;/content&gt;
 &lt;/item&gt;
 &lt;startviewport rect="0,0,1920,1080"/&gt;
 &lt;endviewport rect="0,0,1920,1080"/&gt;
 &lt;background color="0,0,0,0"/&gt;
&lt;/kdenlivetitle&gt;
</property>
    <property name="kdenlive:duration">125</property>
    <property name="force_reload">0</property>
    <property name="kdenlive:file_hash">aaa0b54e381e82ff733c3000dbbe5493</property>
    <property name="global_feed">1</property>
  </producer>
  <producer id="31" title="Anonymous Submission" in="0" out="206">
    <property name="length">207</property>
    <property name="eof">pause</property>
    <property name="resource"></property>
    <property name="progressive">1</property>
    <property name="aspect_ratio">1</property>
    <property name="seekable">1</property>
    <property name="mlt_service">kdenlivetitle</property>
    <property name="kdenlive:clipname">那时候比赛总很难</property>
    <property name="kdenlive:folderid">2</property>
    <property name="xmldata">&lt;kdenlivetitle width="1920" duration="125" out="125" height="1080" LC_NUMERIC="zh_CN.UTF-8"&gt;
 &lt;item z-index="0" type="QGraphicsTextItem"&gt;
  &lt;position x="480" y="913"&gt;
   &lt;transform&gt;1,0,0,0,1,0,0,0,1&lt;/transform&gt;
  &lt;/position&gt;
  &lt;content font-italic="0" letter-spacing="0" font-weight="50" box-height="120" font-outline-color="255,255,255,255" shadow="0;#64000000;3;3;3" font="MF TongZhen (Noncommercial)" font-underline="0" font-outline="0.2" font-pixel-size="120" line-spacing="0" box-width="959.875" font-color="83,83,83,255" alignment="4"&gt;那时候比赛总很难&lt;/content&gt;
 &lt;/item&gt;
 &lt;startviewport rect="0,0,1920,1080"/&gt;
 &lt;endviewport rect="0,0,1920,1080"/&gt;
 &lt;background color="0,0,0,0"/&gt;
&lt;/kdenlivetitle&gt;
</property>
    <property name="kdenlive:duration">125</property>
    <property name="force_reload">0</property>
    <property name="kdenlive:file_hash">aaa0b54e381e82ff733c3000dbbe5493</property>
    <property name="global_feed">1</property>
  </producer>
  <producer id="32" title="Anonymous Submission" in="0" out="206">
    <property name="length">207</property>
    <property name="eof">pause</property>
    <property name="resource"></property>
    <property name="progressive">1</property>
    <property name="aspect_ratio">1</property>
    <property name="seekable">1</property>
    <property name="mlt_service">kdenlivetitle</property>
    <property name="kdenlive:clipname">Rating 总涨得太慢</property>
    <property name="kdenlive:folderid">2</property>
    <property name="xmldata">&lt;kdenlivetitle width="1920" duration="125" out="125" height="1080" LC_NUMERIC="zh_CN.UTF-8"&gt;
 &lt;item z-index="0" type="QGraphicsTextItem"&gt;
  &lt;position x="508" y="913"&gt;
   &lt;transform&gt;1,0,0,0,1,0,0,0,1&lt;/transform&gt;
  &lt;/position&gt;
  &lt;content font-italic="0" letter-spacing="0" font-weight="50" box-height="120" font-outline-color="255,255,255,255" shadow="0;#64000000;3;3;3" font="MF TongZhen (Noncommercial)" font-underline="0" font-outline="0.2" font-pixel-size="120" line-spacing="0" box-width="904.531" font-color="83,83,83,255" alignment="4"&gt;Rating 总涨得太慢&lt;/content&gt;
 &lt;/item&gt;
 &lt;startviewport rect="0,0,1920,1080"/&gt;
 &lt;endviewport rect="0,0,1920,1080"/&gt;
 &lt;background color="0,0,0,0"/&gt;
&lt;/kdenlivetitle&gt;
</property>
    <property name="kdenlive:duration">125</property>
    <property name="force_reload">0</property>
    <property name="kdenlive:file_hash">aaa0b54e381e82ff733c3000dbbe5493</property>
    <property name="global_feed">1</property>
  </producer>
  <producer id="33" title="Anonymous Submission" in="0" out="206">
    <property name="length">207</property>
    <property name="eof">pause</property>
    <property name="resource"></property>
    <property name="progressive">1</property>
    <property name="aspect_ratio">1</property>
    <property name="seekable">1</property>
    <property name="mlt_service">kdenlivetitle</property>
    <property name="kdenlive:clipname">你总说退役遥遥无期</property>
    <property name="kdenlive:folderid">2</property>
    <property name="xmldata">&lt;kdenlivetitle width="1920" duration="125" out="125" height="1080" LC_NUMERIC="zh_CN.UTF-8"&gt;
 &lt;item z-index="0" type="QGraphicsTextItem"&gt;
  &lt;position x="420" y="913"&gt;
   &lt;transform&gt;1,0,0,0,1,0,0,0,1&lt;/transform&gt;
  &lt;/position&gt;
  &lt;content font-italic="0" letter-spacing="0" font-weight="50" box-height="120" font-outline-color="255,255,255,255" shadow="0;#64000000;3;3;3" font="MF TongZhen (Noncommercial)" font-underline="0" font-outline="0.2" font-pixel-size="120" line-spacing="0" box-width="1079.86" font-color="83,83,83,255" alignment="4"&gt;你总说退役遥遥无期&lt;/content&gt;
 &lt;/item&gt;
 &lt;startviewport rect="0,0,1920,1080"/&gt;
 &lt;endviewport rect="0,0,1920,1080"/&gt;
 &lt;background color="0,0,0,0"/&gt;
&lt;/kdenlivetitle&gt;
</property>
    <property name="kdenlive:duration">125</property>
    <property name="force_reload">0</property>
    <property name="kdenlive:file_hash">aaa0b54e381e82ff733c3000dbbe5493</property>
    <property name="global_feed">1</property>
  </producer>
  <producer id="34" title="Anonymous Submission" in="0" out="206">
    <property name="length">207</property>
    <property name="eof">pause</property>
    <property name="resource"></property>
    <property name="progressive">1</property>
    <property name="aspect_ratio">1</property>
    <property name="seekable">1</property>
    <property name="mlt_service">kdenlivetitle</property>
    <property name="kdenlive:clipname">转眼就各分东西</property>
    <property name="kdenlive:folderid">2</property>
    <property name="xmldata">&lt;kdenlivetitle width="1920" duration="125" out="125" height="1080" LC_NUMERIC="zh_CN.UTF-8"&gt;
 &lt;item z-index="0" type="QGraphicsTextItem"&gt;
  &lt;position x="540" y="913"&gt;
   &lt;transform&gt;1,0,0,0,1,0,0,0,1&lt;/transform&gt;
  &lt;/position&gt;
  &lt;content font-italic="0" letter-spacing="0" font-weight="50" box-height="120" font-outline-color="255,255,255,255" shadow="0;#64000000;3;3;3" font="MF TongZhen (Noncommercial)" font-underline="0" font-outline="0.2" font-pixel-size="120" line-spacing="0" box-width="839.891" font-color="83,83,83,255" alignment="4"&gt;转眼就各分东西&lt;/content&gt;
 &lt;/item&gt;
 &lt;startviewport rect="0,0,1920,1080"/&gt;
 &lt;endviewport rect="0,0,1920,1080"/&gt;
 &lt;background color="0,0,0,0"/&gt;
&lt;/kdenlivetitle&gt;
</property>
    <property name="kdenlive:duration">125</property>
    <property name="force_reload">0</property>
    <property name="kdenlive:file_hash">aaa0b54e381e82ff733c3000dbbe5493</property>
    <property name="global_feed">1</property>
  </producer>
  <producer id="35" title="Anonymous Submission" in="0" out="206">
    <property name="length">207</property>
    <property name="eof">pause</property>
    <property name="resource"></property>
    <property name="progressive">1</property>
    <property name="aspect_ratio">1</property>
    <property name="seekable">1</property>
    <property name="mlt_service">kdenlivetitle</property>
    <property name="kdenlive:clipname">谁秒了你出的模拟题</property>
    <property name="kdenlive:folderid">2</property>
    <property name="xmldata">&lt;kdenlivetitle width="1920" duration="125" out="125" height="1080" LC_NUMERIC="zh_CN.UTF-8"&gt;
 &lt;item z-index="0" type="QGraphicsTextItem"&gt;
  &lt;position x="420" y="913"&gt;
   &lt;transform&gt;1,0,0,0,1,0,0,0,1&lt;/transform&gt;
  &lt;/position&gt;
  &lt;content font-italic="0" letter-spacing="0" font-weight="50" box-height="120" font-outline-color="255,255,255,255" shadow="0;#64000000;3;3;3" font="MF TongZhen (Noncommercial)" font-underline="0" font-outline="0.2" font-pixel-size="120" line-spacing="0" box-width="1079.86" font-color="83,83,83,255" alignment="4"&gt;谁秒了你出的模拟题&lt;/content&gt;
 &lt;/item&gt;
 &lt;startviewport rect="0,0,1920,1080"/&gt;
 &lt;endviewport rect="0,0,1920,1080"/&gt;
 &lt;background color="0,0,0,0"/&gt;
&lt;/kdenlivetitle&gt;
</property>
    <property name="kdenlive:duration">125</property>
    <property name="force_reload">0</property>
    <property name="kdenlive:file_hash">ff041c7d7b8b2e8e3f822b469edaa909</property>
    <property name="global_feed">1</property>
  </producer>
  <producer id="36" title="Anonymous Submission" in="0" out="206">
    <property name="length">207</property>
    <property name="eof">pause</property>
    <property name="resource"></property>
    <property name="progressive">1</property>
    <property name="aspect_ratio">1</property>
    <property name="seekable">1</property>
    <property name="mlt_service">kdenlivetitle</property>
    <property name="kdenlive:clipname">谁骂着毒瘤的你</property>
    <property name="kdenlive:folderid">2</property>
    <property name="xmldata">&lt;kdenlivetitle width="1920" duration="125" out="125" height="1080" LC_NUMERIC="zh_CN.UTF-8"&gt;
 &lt;item z-index="0" type="QGraphicsTextItem"&gt;
  &lt;position x="540" y="913"&gt;
   &lt;transform&gt;1,0,0,0,1,0,0,0,1&lt;/transform&gt;
  &lt;/position&gt;
  &lt;content font-italic="0" letter-spacing="0" font-weight="50" box-height="120" font-outline-color="255,255,255,255" shadow="0;#64000000;3;3;3" font="MF TongZhen (Noncommercial)" font-underline="0" font-outline="0.2" font-pixel-size="120" line-spacing="0" box-width="839.891" font-color="83,83,83,255" alignment="4"&gt;谁骂着毒瘤的你&lt;/content&gt;
 &lt;/item&gt;
 &lt;startviewport rect="0,0,1920,1080"/&gt;
 &lt;endviewport rect="0,0,1920,1080"/&gt;
 &lt;background color="0,0,0,0"/&gt;
&lt;/kdenlivetitle&gt;
</property>
    <property name="kdenlive:duration">125</property>
    <property name="force_reload">0</property>
    <property name="kdenlive:file_hash">ff041c7d7b8b2e8e3f822b469edaa909</property>
    <property name="global_feed">1</property>
  </producer>
  <producer id="37" title="Anonymous Submission" in="0" out="206">
    <property name="length">207</property>
    <property name="eof">pause</property>
    <property name="resource"></property>
    <property name="progressive">1</property>
    <property name="aspect_ratio">1</property>
    <property name="seekable">1</property>
    <property name="mlt_service">kdenlivetitle</property>
    <property name="kdenlive:clipname">谁看了你的题解笔记</property>
    <property name="kdenlive:folderid">2</property>
    <property name="xmldata">&lt;kdenlivetitle width="1920" duration="125" out="125" height="1080" LC_NUMERIC="zh_CN.UTF-8"&gt;
 &lt;item z-index="0" type="QGraphicsTextItem"&gt;
  &lt;position x="420" y="913"&gt;
   &lt;transform&gt;1,0,0,0,1,0,0,0,1&lt;/transform&gt;
  &lt;/position&gt;
  &lt;content font-italic="0" letter-spacing="0" font-weight="50" box-height="120" font-outline-color="255,255,255,255" shadow="0;#64000000;3;3;3" font="MF TongZhen (Noncommercial)" font-underline="0" font-outline="0.2" font-pixel-size="120" line-spacing="0" box-width="1079.86" font-color="83,83,83,255" alignment="4"&gt;谁看了你的题解笔记&lt;/content&gt;
 &lt;/item&gt;
 &lt;startviewport rect="0,0,1920,1080"/&gt;
 &lt;endviewport rect="0,0,1920,1080"/&gt;
 &lt;background color="0,0,0,0"/&gt;
&lt;/kdenlivetitle&gt;
</property>
    <property name="kdenlive:duration">125</property>
    <property name="force_reload">0</property>
    <property name="kdenlive:file_hash">ff041c7d7b8b2e8e3f822b469edaa909</property>
    <property name="global_feed">1</property>
  </producer>
  <producer id="38" title="Anonymous Submission" in="0" out="206">
    <property name="length">207</property>
    <property name="eof">pause</property>
    <property name="resource"></property>
    <property name="progressive">1</property>
    <property name="aspect_ratio">1</property>
    <property name="seekable">1</property>
    <property name="mlt_service">kdenlivetitle</property>
    <property name="kdenlive:clipname">谁传给学妹学弟</property>
    <property name="kdenlive:folderid">2</property>
    <property name="xmldata">&lt;kdenlivetitle width="1920" duration="125" out="125" height="1080" LC_NUMERIC="zh_CN.UTF-8"&gt;
 &lt;item z-index="0" type="QGraphicsTextItem"&gt;
  &lt;position x="540" y="913"&gt;
   &lt;transform&gt;1,0,0,0,1,0,0,0,1&lt;/transform&gt;
  &lt;/position&gt;
  &lt;content font-italic="0" letter-spacing="0" font-weight="50" box-height="120" font-outline-color="255,255,255,255" shadow="0;#64000000;3;3;3" font="MF TongZhen (Noncommercial)" font-underline="0" font-outline="0.2" font-pixel-size="120" line-spacing="0" box-width="839.891" font-color="83,83,83,255" alignment="4"&gt;谁传给学妹学弟&lt;/content&gt;
 &lt;/item&gt;
 &lt;startviewport rect="0,0,1920,1080"/&gt;
 &lt;endviewport rect="0,0,1920,1080"/&gt;
 &lt;background color="0,0,0,0"/&gt;
&lt;/kdenlivetitle&gt;
</property>
    <property name="kdenlive:duration">125</property>
    <property name="force_reload">0</property>
    <property name="kdenlive:file_hash">ff041c7d7b8b2e8e3f822b469edaa909</property>
    <property name="global_feed">1</property>
  </producer>
  <producer id="39" title="Anonymous Submission" in="0" out="206">
    <property name="length">207</property>
    <property name="eof">pause</property>
    <property name="resource"></property>
    <property name="progressive">1</property>
    <property name="aspect_ratio">1</property>
    <property name="seekable">1</property>
    <property name="mlt_service">kdenlivetitle</property>
    <property name="kdenlive:clipname">同行的日子都远去</property>
    <property name="kdenlive:folderid">2</property>
    <property name="xmldata">&lt;kdenlivetitle width="1920" duration="125" out="125" height="1080" LC_NUMERIC="zh_CN.UTF-8"&gt;
 &lt;item z-index="0" type="QGraphicsTextItem"&gt;
  &lt;position x="480" y="913"&gt;
   &lt;transform&gt;1,0,0,0,1,0,0,0,1&lt;/transform&gt;
  &lt;/position&gt;
  &lt;content font-italic="0" letter-spacing="0" font-weight="50" box-height="120" font-outline-color="255,255,255,255" shadow="0;#64000000;3;3;3" font="MF TongZhen (Noncommercial)" font-underline="0" font-outline="0.2" font-pixel-size="120" line-spacing="0" box-width="959.875" font-color="83,83,83,255" alignment="4"&gt;同行的日子都远去&lt;/content&gt;
 &lt;/item&gt;
 &lt;startviewport rect="0,0,1920,1080"/&gt;
 &lt;endviewport rect="0,0,1920,1080"/&gt;
 &lt;background color="0,0,0,0"/&gt;
&lt;/kdenlivetitle&gt;
</property>
    <property name="kdenlive:duration">125</property>
    <property name="force_reload">0</property>
    <property name="kdenlive:file_hash">ff041c7d7b8b2e8e3f822b469edaa909</property>
    <property name="global_feed">1</property>
  </producer>
  <producer id="40" title="Anonymous Submission" in="0" out="206">
    <property name="length">207</property>
    <property name="eof">pause</property>
    <property name="resource"></property>
    <property name="progressive">1</property>
    <property name="aspect_ratio">1</property>
    <property name="seekable">1</property>
    <property name="mlt_service">kdenlivetitle</property>
    <property name="kdenlive:clipname">我们也终会退役</property>
    <property name="kdenlive:folderid">2</property>
    <property name="xmldata">&lt;kdenlivetitle width="1920" duration="125" out="125" height="1080" LC_NUMERIC="zh_CN.UTF-8"&gt;
 &lt;item z-index="0" type="QGraphicsTextItem"&gt;
  &lt;position x="540" y="913"&gt;
   &lt;transform&gt;1,0,0,0,1,0,0,0,1&lt;/transform&gt;
  &lt;/position&gt;
  &lt;content font-italic="0" letter-spacing="0" font-weight="50" box-height="120" font-outline-color="255,255,255,255" shadow="0;#64000000;3;3;3" font="MF TongZhen (Noncommercial)" font-underline="0" font-outline="0.2" font-pixel-size="120" line-spacing="0" box-width="839.891" font-color="83,83,83,255" alignment="4"&gt;我们也终会退役&lt;/content&gt;
 &lt;/item&gt;
 &lt;startviewport rect="0,0,1920,1080"/&gt;
 &lt;endviewport rect="0,0,1920,1080"/&gt;
 &lt;background color="0,0,0,0"/&gt;
&lt;/kdenlivetitle&gt;
</property>
    <property name="kdenlive:duration">125</property>
    <property name="force_reload">0</property>
    <property name="kdenlive:file_hash">ff041c7d7b8b2e8e3f822b469edaa909</property>
    <property name="global_feed">1</property>
  </producer>
  <producer id="41" title="Anonymous Submission" in="0" out="206">
    <property name="length">207</property>
    <property name="eof">pause</property>
    <property name="resource"></property>
    <property name="progressive">1</property>
    <property name="aspect_ratio">1</property>
    <property name="seekable">1</property>
    <property name="mlt_service">kdenlivetitle</property>
    <property name="kdenlive:clipname">多年后谁会再想起</property>
    <property name="kdenlive:folderid">2</property>
    <property name="xmldata">&lt;kdenlivetitle width="1920" duration="125" out="125" height="1080" LC_NUMERIC="zh_CN.UTF-8"&gt;
 &lt;item z-index="0" type="QGraphicsTextItem"&gt;
  &lt;position x="480" y="913"&gt;
   &lt;transform&gt;1,0,0,0,1,0,0,0,1&lt;/transform&gt;
  &lt;/position&gt;
  &lt;content font-italic="0" letter-spacing="0" font-weight="50" box-height="120" font-outline-color="255,255,255,255" shadow="0;#64000000;3;3;3" font="MF TongZhen (Noncommercial)" font-underline="0" font-outline="0.2" font-pixel-size="120" line-spacing="0" box-width="959.875" font-color="83,83,83,255" alignment="4"&gt;多年后谁会再想起&lt;/content&gt;
 &lt;/item&gt;
 &lt;startviewport rect="0,0,1920,1080"/&gt;
 &lt;endviewport rect="0,0,1920,1080"/&gt;
 &lt;background color="0,0,0,0"/&gt;
&lt;/kdenlivetitle&gt;
</property>
    <property name="kdenlive:duration">125</property>
    <property name="force_reload">0</property>
    <property name="kdenlive:file_hash">ff041c7d7b8b2e8e3f822b469edaa909</property>
    <property name="global_feed">1</property>
  </producer>
  <producer id="42" title="Anonymous Submission" in="0" out="206">
    <property name="length">207</property>
    <property name="eof">pause</property>
    <property name="resource"></property>
    <property name="progressive">1</property>
    <property name="aspect_ratio">1</property>
    <property name="seekable">1</property>
    <property name="mlt_service">kdenlivetitle</property>
    <property name="kdenlive:clipname">定格考场的记忆</property>
    <property name="kdenlive:folderid">2</property>
    <property name="xmldata">&lt;kdenlivetitle width="1920" duration="125" out="125" height="1080" LC_NUMERIC="zh_CN.UTF-8"&gt;
 &lt;item z-index="0" type="QGraphicsTextItem"&gt;
  &lt;position x="540" y="913"&gt;
   &lt;transform&gt;1,0,0,0,1,0,0,0,1&lt;/transform&gt;
  &lt;/position&gt;
  &lt;content font-italic="0" letter-spacing="0" font-weight="50" box-height="120" font-outline-color="255,255,255,255" shadow="0;#64000000;3;3;3" font="MF TongZhen (Noncommercial)" font-underline="0" font-outline="0.2" font-pixel-size="120" line-spacing="0" box-width="839.891" font-color="83,83,83,255" alignment="4"&gt;定格考场的记忆&lt;/content&gt;
 &lt;/item&gt;
 &lt;startviewport rect="0,0,1920,1080"/&gt;
 &lt;endviewport rect="0,0,1920,1080"/&gt;
 &lt;background color="0,0,0,0"/&gt;
&lt;/kdenlivetitle&gt;
</property>
    <property name="kdenlive:duration">125</property>
    <property name="force_reload">0</property>
    <property name="kdenlive:file_hash">ff041c7d7b8b2e8e3f822b469edaa909</property>
    <property name="global_feed">1</property>
  </producer>
  <producer id="43" title="Anonymous Submission" in="0" out="206">
    <property name="length">207</property>
    <property name="eof">pause</property>
    <property name="resource"></property>
    <property name="progressive">1</property>
    <property name="aspect_ratio">1</property>
    <property name="seekable">1</property>
    <property name="mlt_service">kdenlivetitle</property>
    <property name="kdenlive:clipname">谁记得你出的模拟题</property>
    <property name="kdenlive:folderid">2</property>
    <property name="xmldata">&lt;kdenlivetitle width="1920" duration="125" out="125" height="1080" LC_NUMERIC="zh_CN.UTF-8"&gt;
 &lt;item z-index="0" type="QGraphicsTextItem"&gt;
  &lt;position x="420" y="913"&gt;
   &lt;transform&gt;1,0,0,0,1,0,0,0,1&lt;/transform&gt;
  &lt;/position&gt;
  &lt;content font-italic="0" letter-spacing="0" font-weight="50" box-height="120" font-outline-color="255,255,255,255" shadow="0;#64000000;3;3;3" font="MF TongZhen (Noncommercial)" font-underline="0" font-outline="0.2" font-pixel-size="120" line-spacing="0" box-width="1079.86" font-color="83,83,83,255" alignment="4"&gt;谁记得你出的模拟题&lt;/content&gt;
 &lt;/item&gt;
 &lt;startviewport rect="0,0,1920,1080"/&gt;
 &lt;endviewport rect="0,0,1920,1080"/&gt;
 &lt;background color="0,0,0,0"/&gt;
&lt;/kdenlivetitle&gt;
</property>
    <property name="kdenlive:duration">125</property>
    <property name="force_reload">0</property>
    <property name="kdenlive:file_hash">ff041c7d7b8b2e8e3f822b469edaa909</property>
    <property name="global_feed">1</property>
  </producer>
  <producer id="44" title="Anonymous Submission" in="0" out="206">
    <property name="length">207</property>
    <property name="eof">pause</property>
    <property name="resource"></property>
    <property name="progressive">1</property>
    <property name="aspect_ratio">1</property>
    <property name="seekable">1</property>
    <property name="mlt_service">kdenlivetitle</property>
    <property name="kdenlive:clipname">谁忘记毒瘤的你</property>
    <property name="kdenlive:folderid">2</property>
    <property name="xmldata">&lt;kdenlivetitle width="1920" duration="125" out="125" height="1080" LC_NUMERIC="zh_CN.UTF-8"&gt;
 &lt;item z-index="0" type="QGraphicsTextItem"&gt;
  &lt;position x="540" y="913"&gt;
   &lt;transform&gt;1,0,0,0,1,0,0,0,1&lt;/transform&gt;
  &lt;/position&gt;
  &lt;content font-italic="0" letter-spacing="0" font-weight="50" box-height="120" font-outline-color="255,255,255,255" shadow="0;#64000000;3;3;3" font="MF TongZhen (Noncommercial)" font-underline="0" font-outline="0.2" font-pixel-size="120" line-spacing="0" box-width="839.891" font-color="83,83,83,255" alignment="4"&gt;谁忘记毒瘤的你&lt;/content&gt;
 &lt;/item&gt;
 &lt;startviewport rect="0,0,1920,1080"/&gt;
 &lt;endviewport rect="0,0,1920,1080"/&gt;
 &lt;background color="0,0,0,0"/&gt;
&lt;/kdenlivetitle&gt;
</property>
    <property name="kdenlive:duration">125</property>
    <property name="force_reload">0</property>
    <property name="kdenlive:file_hash">ff041c7d7b8b2e8e3f822b469edaa909</property>
    <property name="global_feed">1</property>
  </producer>
  <producer id="45" title="Anonymous Submission" in="0" out="206">
    <property name="length">207</property>
    <property name="eof">pause</property>
    <property name="resource"></property>
    <property name="progressive">1</property>
    <property name="aspect_ratio">1</property>
    <property name="seekable">1</property>
    <property name="mlt_service">kdenlivetitle</property>
    <property name="kdenlive:clipname">谁学会你的题解笔记</property>
    <property name="kdenlive:folderid">2</property>
    <property name="xmldata">&lt;kdenlivetitle width="1920" duration="125" out="125" height="1080" LC_NUMERIC="zh_CN.UTF-8"&gt;
 &lt;item z-index="0" type="QGraphicsTextItem"&gt;
  &lt;position x="420" y="913"&gt;
   &lt;transform&gt;1,0,0,0,1,0,0,0,1&lt;/transform&gt;
  &lt;/position&gt;
  &lt;content font-italic="0" letter-spacing="0" font-weight="50" box-height="120" font-outline-color="255,255,255,255" shadow="0;#64000000;3;3;3" font="MF TongZhen (Noncommercial)" font-underline="0" font-outline="0.2" font-pixel-size="120" line-spacing="0" box-width="1079.86" font-color="83,83,83,255" alignment="4"&gt;谁学会你的题解笔记&lt;/content&gt;
 &lt;/item&gt;
 &lt;startviewport rect="0,0,1920,1080"/&gt;
 &lt;endviewport rect="0,0,1920,1080"/&gt;
 &lt;background color="0,0,0,0"/&gt;
&lt;/kdenlivetitle&gt;
</property>
    <property name="kdenlive:duration">125</property>
    <property name="force_reload">0</property>
    <property name="kdenlive:file_hash">ff041c7d7b8b2e8e3f822b469edaa909</property>
    <property name="global_feed">1</property>
  </producer>
  <producer id="46" title="Anonymous Submission" in="0" out="206">
    <property name="length">207</property>
    <property name="eof">pause</property>
    <property name="resource"></property>
    <property name="progressive">1</property>
    <property name="aspect_ratio">1</property>
    <property name="seekable">1</property>
    <property name="mlt_service">kdenlivetitle</property>
    <property name="kdenlive:clipname">谁教给学妹学弟</property>
    <property name="kdenlive:folderid">2</property>
    <property name="xmldata">&lt;kdenlivetitle width="1920" duration="125" out="125" height="1080" LC_NUMERIC="zh_CN.UTF-8"&gt;
 &lt;item z-index="0" type="QGraphicsTextItem"&gt;
  &lt;position x="540" y="913"&gt;
   &lt;transform&gt;1,0,0,0,1,0,0,0,1&lt;/transform&gt;
  &lt;/position&gt;
  &lt;content font-italic="0" letter-spacing="0" font-weight="50" box-height="120" font-outline-color="255,255,255,255" shadow="0;#64000000;3;3;3" font="MF TongZhen (Noncommercial)" font-underline="0" font-outline="0.2" font-pixel-size="120" line-spacing="0" box-width="839.891" font-color="83,83,83,255" alignment="4"&gt;谁教给学妹学弟&lt;/content&gt;
 &lt;/item&gt;
 &lt;startviewport rect="0,0,1920,1080"/&gt;
 &lt;endviewport rect="0,0,1920,1080"/&gt;
 &lt;background color="0,0,0,0"/&gt;
&lt;/kdenlivetitle&gt;
</property>
    <property name="kdenlive:duration">125</property>
    <property name="force_reload">0</property>
    <property name="kdenlive:file_hash">ff041c7d7b8b2e8e3f822b469edaa909</property>
    <property name="global_feed">1</property>
  </producer>
  <producer id="49" in="0" out="198">
    <property name="length">199</property>
    <property name="eof">pause</property>
    <property name="resource">images/zyz题解.png</property>
    <property name="ttl">25</property>
    <property name="aspect_ratio">1</property>
    <property name="progressive">1</property>
    <property name="seekable">1</property>
    <property name="loop">1</property>
    <property name="mlt_service">pixbuf</property>
    <property name="kdenlive:folderid">1</property>
    <property name="kdenlive:duration">125</property>
    <property name="kdenlive:file_size">846857</property>
    <property name="kdenlive:file_hash">27f18b317361aeb9802099bdfb708a9e</property>
  </producer>
  <producer id="50" title="Anonymous Submission" in="0" out="363">
    <property name="length">00:00:14:14</property>
    <property name="eof">pause</property>
    <property name="resource">images/对拍.flv</property>
    <property name="audio_index">1</property>
    <property name="video_index">0</property>
    <property name="mute_on_pause">1</property>
    <property name="mlt_service">avformat-novalidate</property>
    <property name="seekable">1</property>
    <property name="aspect_ratio">1</property>
    <property name="kdenlive:folderid">1</property>
    <property name="kdenlive:file_size">4798775</property>
    <property name="kdenlive:file_hash">a9d0962e24a45403db801652b640e4ca</property>
    <property name="global_feed">1</property>
  </producer>
  <producer id="51" in="0" out="192">
    <property name="length">193</property>
    <property name="eof">pause</property>
    <property name="resource">images/偶然翻 OJ.png</property>
    <property name="ttl">25</property>
    <property name="aspect_ratio">1</property>
    <property name="progressive">1</property>
    <property name="seekable">1</property>
    <property name="loop">1</property>
    <property name="mlt_service">pixbuf</property>
    <property name="kdenlive:folderid">-1</property>
    <property name="kdenlive:duration">125</property>
    <property name="kdenlive:file_size">166508</property>
    <property name="kdenlive:file_hash">279f2782bfa6f128527ae30358ca5d19</property>
  </producer>
  <producer id="53" title="Anonymous Submission" in="0" out="6099">
    <property name="length">6100</property>
    <property name="eof">pause</property>
    <property name="resource"></property>
    <property name="progressive">1</property>
    <property name="aspect_ratio">1</property>
    <property name="seekable">1</property>
    <property name="mlt_service">kdenlivetitle</property>
    <property name="kdenlive:clipname">Title clip</property>
    <property name="kdenlive:folderid">3</property>
    <property name="xmldata">&lt;kdenlivetitle width="1920" duration="125" out="125" height="1080" LC_NUMERIC="zh_CN.UTF-8"&gt;
 &lt;item z-index="1" type="QGraphicsPixmapItem"&gt;
  &lt;position x="0" y="0"&gt;
   &lt;transform&gt;1,0,0,0,1,0,0,0,1&lt;/transform&gt;
  &lt;/position&gt;
  &lt;content url="/home/Menci/Videos/WC2018/images/遮蔽.xcf"/&gt;
 &lt;/item&gt;
 &lt;startviewport rect="0,0,1920,1080"/&gt;
 &lt;endviewport rect="0,0,1920,1080"/&gt;
 &lt;background color="0,0,0,0"/&gt;
&lt;/kdenlivetitle&gt;
</property>
    <property name="kdenlive:duration">125</property>
    <property name="force_reload">0</property>
    <property name="kdenlive:file_hash">47bd610f4bbc8f6ae8426008532d0b3b</property>
    <property name="global_feed">1</property>
  </producer>
  <producer id="54" in="0" out="192">
    <property name="length">193</property>
    <property name="eof">pause</property>
    <property name="resource">images/zcy 回忆.png</property>
    <property name="ttl">25</property>
    <property name="aspect_ratio">1</property>
    <property name="progressive">1</property>
    <property name="seekable">1</property>
    <property name="loop">1</property>
    <property name="mlt_service">pixbuf</property>
    <property name="kdenlive:folderid">1</property>
    <property name="kdenlive:duration">125</property>
    <property name="kdenlive:file_size">4736129</property>
    <property name="kdenlive:file_hash">52505122dc9a3f39b31032680d83642a</property>
  </producer>
  <producer id="55" title="Anonymous Submission" in="0" out="1079">
    <property name="length">00:00:43:05</property>
    <property name="eof">pause</property>
    <property name="resource">images/小恐龙.flv</property>
    <property name="audio_index">1</property>
    <property name="video_index">0</property>
    <property name="mute_on_pause">1</property>
    <property name="mlt_service">avformat-novalidate</property>
    <property name="seekable">1</property>
    <property name="aspect_ratio">1</property>
    <property name="kdenlive:folderid">1</property>
    <property name="kdenlive:file_size">14358275</property>
    <property name="kdenlive:file_hash">05462cfc9d589b6cae5b7b2e6db4a7fb</property>
    <property name="global_feed">1</property>
  </producer>
  <producer id="56" title="Anonymous Submission" in="0" out="927">
    <property name="length">00:00:37:03</property>
    <property name="eof">pause</property>
    <property name="resource">images/视频制作.flv</property>
    <property name="audio_index">1</property>
    <property name="video_index">0</property>
    <property name="mute_on_pause">1</property>
    <property name="mlt_service">avformat-novalidate</property>
    <property name="seekable">1</property>
    <property name="aspect_ratio">1</property>
    <property name="kdenlive:folderid">1</property>
    <property name="kdenlive:file_size">12320832</property>
    <property name="kdenlive:file_hash">aa826d0a9283d60e4b156800c8424927</property>
    <property name="global_feed">1</property>
  </producer>
  <producer id="59" title="Anonymous Submission" in="0" out="5214">
    <property name="length">00:03:28:15</property>
    <property name="eof">pause</property>
    <property name="resource">wyyyyyyy.mp3</property>
    <property name="audio_index">0</property>
    <property name="video_index">-1</property>
    <property name="mute_on_pause">1</property>
    <property name="mlt_service">avformat-novalidate</property>
    <property name="seekable">1</property>
    <property name="kdenlive:folderid">-1</property>
    <property name="kdenlive:file_size">3487130</property>
    <property name="kdenlive:file_hash">5b753561c87cd5d89a8b7c2b43ade114</property>
    <property name="global_feed">1</property>
  </producer>
  <producer id="60" title="Anonymous Submission" in="0" out="147">
    <property name="length">148</property>
    <property name="eof">pause</property>
    <property name="resource"></property>
    <property name="progressive">1</property>
    <property name="aspect_ratio">1</property>
    <property name="seekable">1</property>
    <property name="mlt_service">kdenlivetitle</property>
    <property name="kdenlive:clipname">Powered by</property>
    <property name="kdenlive:folderid">4</property>
    <property name="xmldata">&lt;kdenlivetitle width="1920" duration="125" out="125" height="1080" LC_NUMERIC="zh_CN.UTF-8"&gt;
 &lt;item z-index="2" type="QGraphicsSvgItem"&gt;
  &lt;position x="361" y="562"&gt;
   &lt;transform zoom="180"&gt;1.8,0,0,0,1.8,0,0,0,1&lt;/transform&gt;
  &lt;/position&gt;
  &lt;content url="/home/Menci/Videos/WC2018/images/kdenlive-logo-manual.svg"/&gt;
 &lt;/item&gt;
 &lt;item z-index="0" type="QGraphicsTextItem"&gt;
  &lt;position x="573" y="212"&gt;
   &lt;transform&gt;1,0,0,0,1,0,0,0,1&lt;/transform&gt;
  &lt;/position&gt;
  &lt;content font-italic="0" letter-spacing="0" font-weight="50" box-height="180" font-outline-color="255,255,255,255" shadow="0;#64000000;3;3;3" font="MF TongZhen (Noncommercial)" font-underline="0" font-outline="0.2" font-pixel-size="180" line-spacing="0" box-width="773.375" font-color="83,83,83,255" alignment="1"&gt;Powered by&lt;/content&gt;
 &lt;/item&gt;
 &lt;startviewport rect="0,0,1920,1080"/&gt;
 &lt;endviewport rect="0,0,1920,1080"/&gt;
 &lt;background color="0,0,0,0"/&gt;
&lt;/kdenlivetitle&gt;
</property>
    <property name="kdenlive:duration">125</property>
    <property name="force_reload">0</property>
    <property name="kdenlive:file_hash">8de0b2d025f56427968ca61f99c78554</property>
    <property name="global_feed">1</property>
  </producer>
  <producer id="62" title="Anonymous Submission" in="0" out="175">
    <property name="length">176</property>
    <property name="eof">pause</property>
    <property name="resource"></property>
    <property name="progressive">1</property>
    <property name="aspect_ratio">1</property>
    <property name="seekable">1</property>
    <property name="mlt_service">kdenlivetitle</property>
    <property name="kdenlive:clipname">谢谢</property>
    <property name="kdenlive:folderid">4</property>
    <property name="xmldata">&lt;kdenlivetitle width="1920" duration="125" out="125" height="1080" LC_NUMERIC="zh_CN.UTF-8"&gt;
 &lt;item z-index="0" type="QGraphicsTextItem"&gt;
  &lt;position x="131" y="435"&gt;
   &lt;transform&gt;1,0,0,0,1,0,0,0,1&lt;/transform&gt;
  &lt;/position&gt;
  &lt;content font-italic="0" letter-spacing="0" font-weight="50" box-height="210" font-outline-color="255,255,255,255" shadow="0;#64000000;3;3;3" font="MF TongZhen (Noncommercial)" font-underline="0" font-outline="0.2" font-pixel-size="210" line-spacing="0" box-width="1658.23" font-color="83,83,83,255" alignment="1"&gt;Thanks for watching~&lt;/content&gt;
 &lt;/item&gt;
 &lt;startviewport rect="0,0,1920,1080"/&gt;
 &lt;endviewport rect="0,0,1920,1080"/&gt;
 &lt;background color="0,0,0,0"/&gt;
&lt;/kdenlivetitle&gt;
</property>
    <property name="kdenlive:duration">125</property>
    <property name="force_reload">0</property>
    <property name="kdenlive:file_hash">bda855a9a54ffe2e94f69cd9224738e3</property>
    <property name="global_feed">1</property>
  </producer>
  <producer id="63" in="0" out="131">
    <property name="length">132</property>
    <property name="eof">pause</property>
    <property name="resource"></property>
    <property name="progressive">1</property>
    <property name="aspect_ratio">1</property>
    <property name="seekable">1</property>
    <property name="mlt_service">kdenlivetitle</property>
    <property name="kdenlive:clipname">献给</property>
    <property name="kdenlive:folderid">4</property>
    <property name="xmldata">&lt;kdenlivetitle width="1920" duration="125" out="125" height="1080" LC_NUMERIC="zh_CN.UTF-8"&gt;
 &lt;item z-index="0" type="QGraphicsTextItem"&gt;
  &lt;position x="160" y="335"&gt;
   &lt;transform&gt;1,0,0,0,1,0,0,0,1&lt;/transform&gt;
  &lt;/position&gt;
  &lt;content font-italic="0" letter-spacing="0" font-weight="50" box-height="410" font-outline-color="255,255,255,255" shadow="0;#64000000;3;3;3" font="MF TongZhen (Noncommercial)" font-underline="0" font-outline="0.2" font-pixel-size="180" line-spacing="50" box-width="1599.53" font-color="83,83,83,255" alignment="4"&gt;谨以此歌
献给那些退役的 OIer&lt;/content&gt;
 &lt;/item&gt;
 &lt;startviewport rect="0,0,1920,1080"/&gt;
 &lt;endviewport rect="0,0,1920,1080"/&gt;
 &lt;background color="0,0,0,0"/&gt;
&lt;/kdenlivetitle&gt;
</property>
    <property name="kdenlive:duration">125</property>
    <property name="force_reload">0</property>
    <property name="kdenlive:file_hash">b784a728d22700e814b9b9b3c3e155ee</property>
  </producer>
  <producer id="64" in="0" out="137">
    <property name="length">138</property>
    <property name="eof">pause</property>
    <property name="resource">images/zcyAK.png</property>
    <property name="ttl">25</property>
    <property name="aspect_ratio">1</property>
    <property name="progressive">1</property>
    <property name="seekable">1</property>
    <property name="loop">1</property>
    <property name="mlt_service">pixbuf</property>
    <property name="kdenlive:folderid">1</property>
    <property name="kdenlive:duration">125</property>
    <property name="kdenlive:file_size">19701</property>
    <property name="kdenlive:file_hash">ef78c677a241d7062380b8062154902e</property>
  </producer>
  <playlist id="main bin">
    <property name="xml_retain">1</property>
    <entry producer="2" in="0" out="124"/>
    <entry producer="3" in="0" out="124"/>
    <entry producer="4" in="0" out="124"/>
    <entry producer="5" in="0" out="124"/>
    <entry producer="6" in="0" out="124"/>
    <entry producer="7" in="0" out="124"/>
    <entry producer="8" in="0" out="124"/>
    <entry producer="10" in="0" out="124"/>
    <entry producer="12" in="0" out="124"/>
    <entry producer="13" in="0" out="124"/>
    <entry producer="14" in="0" out="124"/>
    <entry producer="15" in="0" out="206"/>
    <entry producer="16" in="0" out="206"/>
    <entry producer="17" in="0" out="206"/>
    <entry producer="19" in="0" out="206"/>
    <entry producer="20" in="0" out="206"/>
    <entry producer="21" in="0" out="206"/>
    <entry producer="22" in="0" out="206"/>
    <entry producer="23" in="0" out="206"/>
    <entry producer="24" in="0" out="206"/>
    <entry producer="25" in="0" out="206"/>
    <entry producer="26" in="0" out="206"/>
    <entry producer="27" in="0" out="206"/>
    <entry producer="28" in="0" out="206"/>
    <entry producer="29" in="0" out="206"/>
    <entry producer="30" in="0" out="206"/>
    <entry producer="31" in="0" out="206"/>
    <entry producer="32" in="0" out="206"/>
    <entry producer="33" in="0" out="206"/>
    <entry producer="34" in="0" out="206"/>
    <entry producer="35" in="0" out="206"/>
    <entry producer="36" in="0" out="206"/>
    <entry producer="37" in="0" out="206"/>
    <entry producer="38" in="0" out="206"/>
    <entry producer="39" in="0" out="206"/>
    <entry producer="40" in="0" out="206"/>
    <entry producer="41" in="0" out="206"/>
    <entry producer="42" in="0" out="206"/>
    <entry producer="43" in="0" out="206"/>
    <entry producer="44" in="0" out="206"/>
    <entry producer="45" in="0" out="206"/>
    <entry producer="46" in="0" out="206"/>
    <entry producer="49" in="0" out="124"/>
    <entry producer="50" in="0" out="363"/>
    <entry producer="51" in="0" out="124"/>
    <entry producer="53" in="0" out="124"/>
    <entry producer="54" in="0" out="124"/>
    <entry producer="55" in="0" out="1079"/>
    <entry producer="56" in="0" out="927"/>
    <entry producer="59" in="0" out="5214"/>
    <entry producer="60" in="0" out="124"/>
    <entry producer="62" in="0" out="124"/>
    <entry producer="63" in="0" out="124"/>
    <entry producer="64" in="0" out="124"/>
  </playlist>
  <producer id="black" in="0" out="500">
    <property name="length">15000</property>
    <property name="eof">pause</property>
    <property name="resource">black</property>
    <property name="aspect_ratio">0</property>
    <property name="mlt_service">colour</property>
    <property name="set.test_audio">0</property>
  </producer>
  <playlist id="black_track">
    <entry producer="black" in="0" out="5215"/>
  </playlist>
  <producer id="59_playlist2" title="Anonymous Submission" in="0" out="5214">
    <property name="length">00:03:28:15</property>
    <property name="eof">pause</property>
    <property name="resource">wyyyyyyy.mp3</property>
    <property name="audio_index">0</property>
    <property name="video_index">-1</property>
    <property name="mute_on_pause">1</property>
    <property name="mlt_service">avformat-novalidate</property>
    <property name="seekable">1</property>
    <property name="kdenlive:folderid">-1</property>
    <property name="kdenlive:file_size">3487130</property>
    <property name="kdenlive:file_hash">5b753561c87cd5d89a8b7c2b43ade114</property>
    <property name="global_feed">1</property>
    <property name="xml">was here</property>
  </producer>
  <playlist id="playlist2">
    <entry producer="59_playlist2" in="0" out="5214"/>
  </playlist>
  <playlist id="playlist3">
    <entry producer="10" in="101" out="5315">
      <filter id="qtblend">
        <property name="mlt_service">qtblend</property>
        <property name="kdenlive_id">qtblend</property>
        <property name="tag">qtblend</property>
        <property name="kdenlive_ix">1</property>
        <property name="rect">101=0 0 1920 1080 1;5292=0 0 1920 1080 1;5315~=0 0 1920 1080 0</property>
        <property name="rotation">101=0;5292=0;5315=0</property>
        <property name="compositing">0</property>
        <property name="distort">0</property>
        <property name="kdenlive_info"></property>
        <property name="disable"></property>
      </filter>
    </entry>
  </playlist>
  <producer id="55_playlist1" title="Anonymous Submission" in="0" out="1079">
    <property name="length">00:00:43:05</property>
    <property name="eof">pause</property>
    <property name="resource">images/小恐龙.flv</property>
    <property name="audio_index">1</property>
    <property name="video_index">0</property>
    <property name="mute_on_pause">1</property>
    <property name="mlt_service">avformat-novalidate</property>
    <property name="seekable">1</property>
    <property name="aspect_ratio">1</property>
    <property name="kdenlive:folderid">1</property>
    <property name="kdenlive:file_size">14358275</property>
    <property name="kdenlive:file_hash">05462cfc9d589b6cae5b7b2e6db4a7fb</property>
    <property name="global_feed">1</property>
    <property name="xml">was here</property>
  </producer>
  <producer id="50_playlist1" title="Anonymous Submission" in="0" out="363">
    <property name="length">00:00:14:14</property>
    <property name="eof">pause</property>
    <property name="resource">images/对拍.flv</property>
    <property name="audio_index">1</property>
    <property name="video_index">0</property>
    <property name="mute_on_pause">1</property>
    <property name="mlt_service">avformat-novalidate</property>
    <property name="seekable">1</property>
    <property name="aspect_ratio">1</property>
    <property name="kdenlive:folderid">1</property>
    <property name="kdenlive:file_size">4798775</property>
    <property name="kdenlive:file_hash">a9d0962e24a45403db801652b640e4ca</property>
    <property name="global_feed">1</property>
    <property name="xml">was here</property>
  </producer>
  <producer id="56_playlist1" title="Anonymous Submission" in="0" out="927">
    <property name="length">00:00:37:03</property>
    <property name="eof">pause</property>
    <property name="resource">images/视频制作.flv</property>
    <property name="audio_index">1</property>
    <property name="video_index">0</property>
    <property name="mute_on_pause">1</property>
    <property name="mlt_service">avformat-novalidate</property>
    <property name="seekable">1</property>
    <property name="aspect_ratio">1</property>
    <property name="kdenlive:folderid">1</property>
    <property name="kdenlive:file_size">12320832</property>
    <property name="kdenlive:file_hash">aa826d0a9283d60e4b156800c8424927</property>
    <property name="global_feed">1</property>
    <property name="xml">was here</property>
  </producer>
  <playlist id="playlist1">
    <blank length="575"/>
    <entry producer="4" in="0" out="192">
      <filter id="filter0">
        <property name="mlt_service">qtblend</property>
        <property name="kdenlive_id">qtblend</property>
        <property name="tag">qtblend</property>
        <property name="kdenlive_ix">1</property>
        <property name="kdenlive_info"></property>
        <property name="disable"></property>
        <property name="rect">0=-1728 100 5376 3024 0;25=-1728 -191.016 5376 3024 1;168=-1728 -1855.62 5376 3024 1;192=-1728 -2135 5376 3024 0</property>
        <property name="rotation">0=0;25=0;168=0;192=0</property>
        <property name="compositing">0</property>
        <property name="distort">0</property>
      </filter>
    </entry>
    <blank length="185"/>
    <entry producer="51" in="0" out="191">
      <filter id="filter1">
        <property name="mlt_service">qtblend</property>
        <property name="kdenlive_id">qtblend</property>
        <property name="tag">qtblend</property>
        <property name="kdenlive_ix">1</property>
        <property name="kdenlive_info"></property>
        <property name="disable"></property>
        <property name="rect">0=229 77 1447 814 0;28=229 77 1447 814 1;173=229 77 1447 814 1;191=229 77 1447 814 0</property>
        <property name="rotation">0=0;28=0;173=0;191=0</property>
        <property name="compositing">0</property>
        <property name="distort">0</property>
      </filter>
    </entry>
    <blank length="103"/>
    <entry producer="64" in="35" out="136">
      <filter id="filter2">
        <property name="mlt_service">qtblend</property>
        <property name="kdenlive_id">qtblend</property>
        <property name="tag">qtblend</property>
        <property name="kdenlive_ix">1</property>
        <property name="rect">35~=256 -1132 5760 3240 0;48=-304.673 -1132 5760 3240 1;124=-3582.46 -1132 5760 3240 1;136=-4100 -1132 5760 3240 0</property>
        <property name="rotation">35=0;48=0;124=0;136=0</property>
        <property name="compositing">0</property>
        <property name="distort">0</property>
        <property name="kdenlive_info"></property>
        <property name="disable"></property>
      </filter>
    </entry>
    <entry producer="3" in="0" out="79">
      <filter id="filter3">
        <property name="mlt_service">qtblend</property>
        <property name="kdenlive_id">qtblend</property>
        <property name="tag">qtblend</property>
        <property name="kdenlive_ix">1</property>
        <property name="kdenlive_info"></property>
        <property name="disable"></property>
        <property name="rect">0~=-402 97 4032 2268 0;9=-402 97 4032 2268 1;59=-402 97 4032 2268 1;79=-402 97 4032 2268 0</property>
        <property name="rotation">0=0;9=0;59=0;79=0</property>
        <property name="compositing">0</property>
        <property name="distort">0</property>
      </filter>
    </entry>
    <blank length="2"/>
    <entry producer="54" in="0" out="189">
      <filter id="filter4">
        <property name="mlt_service">qtblend</property>
        <property name="kdenlive_id">qtblend</property>
        <property name="tag">qtblend</property>
        <property name="kdenlive_ix">1</property>
        <property name="kdenlive_info"></property>
        <property name="disable"></property>
        <property name="rect">0~=-2216 100 6336 3564 0;27=-2216 -297.714 6336 3564 1;175=-2216 -2477.78 6336 3564 1;189=-2216 -2684 6336 3564 0</property>
        <property name="rotation">0=0;27=0;175=0;189=0</property>
        <property name="compositing">0</property>
        <property name="distort">0</property>
      </filter>
    </entry>
    <entry producer="55_playlist1" in="147" out="984">
      <filter id="filter5">
        <property name="mlt_service">qtblend</property>
        <property name="kdenlive_id">qtblend</property>
        <property name="tag">qtblend</property>
        <property name="kdenlive_ix">1</property>
        <property name="kdenlive_info"></property>
        <property name="disable"></property>
        <property name="rect">147~=252 98 1400 787 0;163=252 98 1400 787 1;949=252 98 1400 787 1;984=252 98 1400 787 0</property>
        <property name="rotation">147=0;163=0;949=0;984=0</property>
        <property name="compositing">0</property>
        <property name="distort">0</property>
      </filter>
    </entry>
    <blank length="25"/>
    <entry producer="50_playlist1" in="126" out="314">
      <filter id="filter6">
        <property name="mlt_service">qtblend</property>
        <property name="kdenlive_id">qtblend</property>
        <property name="tag">qtblend</property>
        <property name="kdenlive_ix">1</property>
        <property name="kdenlive_info"></property>
        <property name="disable"></property>
        <property name="rect">126~=268 106 1379 776 0;147=268 106 1379 776 1;291=268 106 1379 776 1;314=268 106 1379 776 0</property>
        <property name="rotation">126=0;147=0;291=0;314=0</property>
        <property name="compositing">0</property>
        <property name="distort">0</property>
      </filter>
    </entry>
    <entry producer="2" in="0" out="188">
      <filter id="filter7">
        <property name="mlt_service">qtblend</property>
        <property name="kdenlive_id">qtblend</property>
        <property name="tag">qtblend</property>
        <property name="kdenlive_ix">1</property>
        <property name="kdenlive_info"></property>
        <property name="disable"></property>
        <property name="rect">0~=-384 100 2688 1512 0;22=-384 18.4362 2688 1512 1;165=-384 -511.729 2688 1512 1;188=-384 -597 2688 1512 0</property>
        <property name="rotation">0=0;22=0;165=0;188=0</property>
        <property name="compositing">0</property>
        <property name="distort">0</property>
      </filter>
    </entry>
    <entry producer="5" in="0" out="185">
      <filter id="filter8">
        <property name="mlt_service">qtblend</property>
        <property name="kdenlive_id">qtblend</property>
        <property name="tag">qtblend</property>
        <property name="kdenlive_ix">1</property>
        <property name="kdenlive_info"></property>
        <property name="disable"></property>
        <property name="rect">0~=256 -169 2265 1274 0;23=149.578 -169 2265 1274 1;162=-493.578 -169 2265 1274 1;185=-600 -169 2265 1274 0</property>
        <property name="rotation">0=0;23=0;162=0;185=0</property>
        <property name="compositing">0</property>
        <property name="distort">0</property>
      </filter>
    </entry>
    <blank length="243"/>
    <entry producer="7" in="0" out="189">
      <filter id="filter9">
        <property name="mlt_service">qtblend</property>
        <property name="kdenlive_id">qtblend</property>
        <property name="tag">qtblend</property>
        <property name="kdenlive_ix">1</property>
        <property name="kdenlive_info"></property>
        <property name="disable"></property>
        <property name="rect">0~=-1584 100 5088 2862 0;22=-1584 -140.836 5088 2862 1;171=-1584 -1771.95 5088 2862 1;189=-1584 -1969 5088 2862 0</property>
        <property name="rotation">0=0;22=0;171=0;189=0</property>
        <property name="compositing">0</property>
        <property name="distort">0</property>
      </filter>
    </entry>
    <entry producer="6" in="0" out="179">
      <filter id="filter10">
        <property name="mlt_service">qtblend</property>
        <property name="kdenlive_id">qtblend</property>
        <property name="tag">qtblend</property>
        <property name="kdenlive_ix">1</property>
        <property name="kdenlive_info"></property>
        <property name="disable"></property>
        <property name="rect">0~=-2410 0 6720 3780 0;19=-2410 -306.547 6720 3780 1;169=-2410 -2726.66 6720 3780 1;179=-2410 -2888 6720 3780 0</property>
        <property name="rotation">0=0;19=0;169=0;179=0</property>
        <property name="compositing">0</property>
        <property name="distort">0</property>
      </filter>
    </entry>
    <entry producer="56_playlist1" in="260" out="703">
      <filter id="filter11">
        <property name="mlt_service">qtblend</property>
        <property name="kdenlive_id">qtblend</property>
        <property name="tag">qtblend</property>
        <property name="kdenlive_ix">1</property>
        <property name="kdenlive_info"></property>
        <property name="disable"></property>
        <property name="rect">260~=265 101 1382 777 0;292=0 0 1920 1080 1;684=0 0 1920 1080 1;703=265 101 1382 777 0</property>
        <property name="rotation">260=0;292=0;684=0;703=0</property>
        <property name="compositing">0</property>
        <property name="distort">0</property>
      </filter>
    </entry>
    <blank length="382"/>
    <entry producer="8" in="0" out="181">
      <filter id="filter12">
        <property name="mlt_service">qtblend</property>
        <property name="kdenlive_id">qtblend</property>
        <property name="tag">qtblend</property>
        <property name="kdenlive_ix">1</property>
        <property name="kdenlive_info"></property>
        <property name="disable"></property>
        <property name="rect">0~=-707 95 3321 1868 0;12=-707 24.4586 3321 1868 1;163=-707 -863.188 3321 1868 1;181=-707 -969 3321 1868 0</property>
        <property name="rotation">0=0;12=0;163=0;181=0</property>
        <property name="compositing">0</property>
        <property name="distort">0</property>
      </filter>
    </entry>
    <entry producer="49" in="0" out="197">
      <filter id="filter13">
        <property name="mlt_service">qtblend</property>
        <property name="kdenlive_id">qtblend</property>
        <property name="tag">qtblend</property>
        <property name="kdenlive_ix">1</property>
        <property name="kdenlive_info"></property>
        <property name="disable"></property>
        <property name="rect">0~=-2442 95 6776 3811 0;20=-2442 -210.888 6776 3811 1;176=-2442 -2596.82 6776 3811 1;197=-2442 -2918 6776 3811 0</property>
        <property name="rotation">0=0;20=0;176=0;197=0</property>
        <property name="compositing">0</property>
        <property name="distort">0</property>
      </filter>
    </entry>
    <blank length="15"/>
    <entry producer="60" in="0" out="146">
      <filter id="filter14">
        <property name="mlt_service">qtblend</property>
        <property name="kdenlive_id">qtblend</property>
        <property name="tag">qtblend</property>
        <property name="kdenlive_ix">1</property>
        <property name="rect">0~=0 0 1920 1080 0;24=0 0 1920 1080 1;113=0 0 1920 1080 1;146=0 0 1920 1080 0</property>
        <property name="rotation">0=0;24=0;113=0;146=0</property>
        <property name="compositing">0</property>
        <property name="distort">0</property>
        <property name="kdenlive_info"></property>
        <property name="disable"></property>
      </filter>
    </entry>
    <blank length="10"/>
    <entry producer="62" in="0" out="174">
      <filter id="filter15">
        <property name="mlt_service">qtblend</property>
        <property name="kdenlive_id">qtblend</property>
        <property name="tag">qtblend</property>
        <property name="kdenlive_ix">1</property>
        <property name="rect">0~=0 0 1920 1080 0;18=0 0 1920 1080 1;151=0 0 1920 1080 1;174~=0 0 1920 1080 0</property>
        <property name="rotation">0=0;18=0;151=0;174=0</property>
        <property name="compositing">0</property>
        <property name="distort">0</property>
        <property name="kdenlive_info"></property>
        <property name="disable"></property>
      </filter>
    </entry>
  </playlist>
  <playlist id="playlist0">
    <blank length="396"/>
    <entry producer="53" in="290" out="3555"/>
    <blank length="444"/>
    <entry producer="53" in="290" out="1051"/>
  </playlist>
  <playlist id="playlist4">
    <entry producer="13" in="101" out="210">
      <filter id="filter16">
        <property name="mlt_service">qtblend</property>
        <property name="kdenlive_id">qtblend</property>
        <property name="tag">qtblend</property>
        <property name="kdenlive_ix">1</property>
        <property name="kdenlive_info"></property>
        <property name="disable"></property>
        <property name="rect">0=0 0 1920 1080 1;101=0 0 1920 1080 0;114=0 0 1920 1080 1;194=0 0 1920 1080 0;210=0 0 1920 1080 0</property>
        <property name="rotation">0=0;101=0;114=0;194=0;210=0</property>
        <property name="compositing">0</property>
        <property name="distort">0</property>
      </filter>
    </entry>
    <blank length="7"/>
    <entry producer="14" in="0" out="144">
      <filter id="filter17">
        <property name="mlt_service">qtblend</property>
        <property name="kdenlive_id">qtblend</property>
        <property name="tag">qtblend</property>
        <property name="kdenlive_ix">1</property>
        <property name="kdenlive_info"></property>
        <property name="disable"></property>
        <property name="rect">0=0 0 1920 1080 0;12=0 0 1920 1080 1;127=0 0 1920 1080 1;144=0 0 1920 1080 0</property>
        <property name="rotation">0=0;12=0;127=0;144=0</property>
        <property name="compositing">0</property>
        <property name="distort">0</property>
      </filter>
    </entry>
    <blank length="3"/>
    <entry producer="63" in="3" out="130">
      <filter id="filter18">
        <property name="mlt_service">qtblend</property>
        <property name="kdenlive_id">qtblend</property>
        <property name="tag">qtblend</property>
        <property name="kdenlive_ix">1</property>
        <property name="rect">3=0 0 1920 1080 0;13=0 0 1920 1080 1;118=0 0 1920 1080 1;130=0 0 1920 1080 0</property>
        <property name="rotation">3=0;13=0;118=0;130=0</property>
        <property name="compositing">0</property>
        <property name="distort">0</property>
        <property name="kdenlive_info"></property>
        <property name="disable"></property>
      </filter>
    </entry>
    <blank length="3"/>
    <entry producer="12" in="23" out="117">
      <filter id="filter19">
        <property name="mlt_service">qtblend</property>
        <property name="kdenlive_id">qtblend</property>
        <property name="tag">qtblend</property>
        <property name="kdenlive_ix">1</property>
        <property name="kdenlive_info"></property>
        <property name="disable"></property>
        <property name="rect">23=0 0 1920 1080 0;37=0 0 1920 1080 1;104=0 0 1920 1080 1;117=0 0 1920 1080 0</property>
        <property name="rotation">23=0;37=0;104=0;117=0</property>
        <property name="compositing">0</property>
        <property name="distort">0</property>
      </filter>
    </entry>
    <entry producer="15" in="13" out="96">
      <filter id="filter20">
        <property name="mlt_service">qtblend</property>
        <property name="kdenlive_id">qtblend</property>
        <property name="tag">qtblend</property>
        <property name="kdenlive_ix">1</property>
        <property name="kdenlive_info"></property>
        <property name="disable"></property>
        <property name="rect">13=0 0 1920 1080 0;27=0 0 1920 1080 1;72=0 0 1920 1080 1;96=0 0 1920 1080 0</property>
        <property name="rotation">13=0;27=0;71=0</property>
        <property name="compositing">0</property>
        <property name="distort">0</property>
      </filter>
    </entry>
    <entry producer="16" in="10" out="120">
      <filter id="filter21">
        <property name="mlt_service">qtblend</property>
        <property name="kdenlive_id">qtblend</property>
        <property name="tag">qtblend</property>
        <property name="kdenlive_ix">1</property>
        <property name="kdenlive_info"></property>
        <property name="disable"></property>
        <property name="rect">10=0 0 1920 1080 0;35=0 0 1920 1080 1;104=0 0 1920 1080 1;120=0 0 1920 1080 0</property>
        <property name="rotation">10=0;35=0;104=0;120=0</property>
        <property name="compositing">0</property>
        <property name="distort">0</property>
      </filter>
    </entry>
    <entry producer="17" in="0" out="81">
      <filter id="filter22">
        <property name="mlt_service">qtblend</property>
        <property name="kdenlive_id">qtblend</property>
        <property name="tag">qtblend</property>
        <property name="kdenlive_ix">1</property>
        <property name="kdenlive_info"></property>
        <property name="disable"></property>
        <property name="rect">0=0 0 1920 1080 0;10=0 0 1920 1080 1;57=0 0 1920 1080 1;81=0 0 1920 1080 0</property>
        <property name="rotation">0=0;10=0;57=0;81=0</property>
        <property name="compositing">0</property>
        <property name="distort">0</property>
      </filter>
    </entry>
    <entry producer="19" in="15" out="124">
      <filter id="filter23">
        <property name="mlt_service">qtblend</property>
        <property name="kdenlive_id">qtblend</property>
        <property name="tag">qtblend</property>
        <property name="kdenlive_ix">1</property>
        <property name="kdenlive_info"></property>
        <property name="disable"></property>
        <property name="rect">15=0 0 1920 1080 0;39=0 0 1920 1080 1;106=0 0 1920 1080 1;124=0 0 1920 1080 0</property>
        <property name="rotation">15=0;39=0;106=0;124=0</property>
        <property name="compositing">0</property>
        <property name="distort">0</property>
      </filter>
    </entry>
    <entry producer="20" in="0" out="74">
      <filter id="filter24">
        <property name="mlt_service">qtblend</property>
        <property name="kdenlive_id">qtblend</property>
        <property name="tag">qtblend</property>
        <property name="kdenlive_ix">1</property>
        <property name="kdenlive_info"></property>
        <property name="disable"></property>
        <property name="rect">0=0 0 1920 1080 0;12=0 0 1920 1080 1;56=0 0 1920 1080 1;74=0 0 1920 1080 0</property>
        <property name="rotation">0=0;12=0;56=0;74=0</property>
        <property name="compositing">0</property>
        <property name="distort">0</property>
      </filter>
    </entry>
    <entry producer="21" in="0" out="116">
      <filter id="filter25">
        <property name="mlt_service">qtblend</property>
        <property name="kdenlive_id">qtblend</property>
        <property name="tag">qtblend</property>
        <property name="kdenlive_ix">1</property>
        <property name="kdenlive_info"></property>
        <property name="disable"></property>
        <property name="rect">0=0 0 1920 1080 0;28=0 0 1920 1080 1;99=0 0 1920 1080 1;116=0 0 1920 1080 0</property>
        <property name="rotation">0=0;28=0;99=0;116=0</property>
        <property name="compositing">0</property>
        <property name="distort">0</property>
      </filter>
    </entry>
    <entry producer="22" in="0" out="74">
      <filter id="filter26">
        <property name="mlt_service">qtblend</property>
        <property name="kdenlive_id">qtblend</property>
        <property name="tag">qtblend</property>
        <property name="kdenlive_ix">1</property>
        <property name="kdenlive_info"></property>
        <property name="disable"></property>
        <property name="rect">0=0 0 1920 1080 0;10=0 0 1920 1080 1;56=0 0 1920 1080 1;74=0 0 1920 1080 0</property>
        <property name="rotation">0=0;10=0;56=0;74=0</property>
        <property name="compositing">0</property>
        <property name="distort">0</property>
      </filter>
    </entry>
    <blank length="103"/>
    <entry producer="23" in="0" out="101">
      <filter id="filter27">
        <property name="mlt_service">qtblend</property>
        <property name="kdenlive_id">qtblend</property>
        <property name="tag">qtblend</property>
        <property name="kdenlive_ix">1</property>
        <property name="kdenlive_info"></property>
        <property name="disable"></property>
        <property name="rect">0~=0 0 1920 1080 0;13=0 0 1920 1080 1;89=0 0 1920 1080 1;101=0 0 1920 1080 0</property>
        <property name="rotation">0=0;13=0;89=0;101=0</property>
        <property name="compositing">0</property>
        <property name="distort">0</property>
      </filter>
    </entry>
    <entry producer="24" in="3" out="82">
      <filter id="filter28">
        <property name="mlt_service">qtblend</property>
        <property name="kdenlive_id">qtblend</property>
        <property name="tag">qtblend</property>
        <property name="kdenlive_ix">1</property>
        <property name="kdenlive_info"></property>
        <property name="disable"></property>
        <property name="rect">3~=0 0 1920 1080 0;12=0 0 1920 1080 1;62=0 0 1920 1080 1;82=0 0 1920 1080 0</property>
        <property name="rotation">3=0;12=0;62=0;82=0</property>
        <property name="compositing">0</property>
        <property name="distort">0</property>
      </filter>
    </entry>
    <blank length="2"/>
    <entry producer="25" in="0" out="107">
      <filter id="filter29">
        <property name="mlt_service">qtblend</property>
        <property name="kdenlive_id">qtblend</property>
        <property name="tag">qtblend</property>
        <property name="kdenlive_ix">1</property>
        <property name="kdenlive_info"></property>
        <property name="disable"></property>
        <property name="rect">0~=0 0 1920 1080 1;27=0 0 1920 1080 1;95=0 0 1920 1080 1;107=0 0 1920 1080 0</property>
        <property name="rotation">0=0;27=0;95=0;107=0</property>
        <property name="compositing">0</property>
        <property name="distort">0</property>
      </filter>
    </entry>
    <entry producer="26" in="0" out="81">
      <filter id="filter30">
        <property name="mlt_service">qtblend</property>
        <property name="kdenlive_id">qtblend</property>
        <property name="tag">qtblend</property>
        <property name="kdenlive_ix">1</property>
        <property name="kdenlive_info"></property>
        <property name="disable"></property>
        <property name="rect">0~=0 0 1920 1080 0;10=0 0 1920 1080 1;67=0 0 1920 1080 1;81=0 0 1920 1080 0</property>
        <property name="rotation">0=0;10=0;67=0;81=0</property>
        <property name="compositing">0</property>
        <property name="distort">0</property>
      </filter>
    </entry>
    <blank length="863"/>
    <entry producer="27" in="21" out="120">
      <filter id="filter31">
        <property name="mlt_service">qtblend</property>
        <property name="kdenlive_id">qtblend</property>
        <property name="tag">qtblend</property>
        <property name="kdenlive_ix">1</property>
        <property name="kdenlive_info"></property>
        <property name="disable"></property>
        <property name="rect">21~=0 0 1920 1080 0;42=0 0 1920 1080 1;111=0 0 1920 1080 1;120=0 0 1920 1080 0</property>
        <property name="rotation">21=0;42=0;111=0;120=0</property>
        <property name="compositing">0</property>
        <property name="distort">0</property>
      </filter>
    </entry>
    <entry producer="28" in="0" out="88">
      <filter id="filter32">
        <property name="mlt_service">qtblend</property>
        <property name="kdenlive_id">qtblend</property>
        <property name="tag">qtblend</property>
        <property name="kdenlive_ix">1</property>
        <property name="kdenlive_info"></property>
        <property name="disable"></property>
        <property name="rect">0~=0 0 1920 1080 0;13=0 0 1920 1080 1;65=0 0 1920 1080 1;88=0 0 1920 1080 0</property>
        <property name="rotation">0=0;13=0;65=0;88=0</property>
        <property name="compositing">0</property>
        <property name="distort">0</property>
      </filter>
    </entry>
    <entry producer="29" in="0" out="100">
      <filter id="filter33">
        <property name="mlt_service">qtblend</property>
        <property name="kdenlive_id">qtblend</property>
        <property name="tag">qtblend</property>
        <property name="kdenlive_ix">1</property>
        <property name="kdenlive_info"></property>
        <property name="disable"></property>
        <property name="rect">0~=0 0 1920 1080 0;22=0 0 1920 1080 1;92=0 0 1920 1080 1;100=0 0 1920 1080 0</property>
        <property name="rotation">0=0;22=0;92=0;100=0</property>
        <property name="compositing">0</property>
        <property name="distort">0</property>
      </filter>
    </entry>
    <entry producer="30" in="0" out="87">
      <filter id="filter34">
        <property name="mlt_service">qtblend</property>
        <property name="kdenlive_id">qtblend</property>
        <property name="tag">qtblend</property>
        <property name="kdenlive_ix">1</property>
        <property name="kdenlive_info"></property>
        <property name="disable"></property>
        <property name="rect">0~=0 0 1920 1080 0;10=0 0 1920 1080 1;64=0 0 1920 1080 1;87=0 0 1920 1080 0</property>
        <property name="rotation">0=0;10=0;64=0;87=0</property>
        <property name="compositing">0</property>
        <property name="distort">0</property>
      </filter>
    </entry>
    <entry producer="31" in="0" out="102">
      <filter id="filter35">
        <property name="mlt_service">qtblend</property>
        <property name="kdenlive_id">qtblend</property>
        <property name="tag">qtblend</property>
        <property name="kdenlive_ix">1</property>
        <property name="kdenlive_info"></property>
        <property name="disable"></property>
        <property name="rect">0~=0 0 1920 1080 0;23=0 0 1920 1080 1;94=0 0 1920 1080 1;102=0 0 1920 1080 0</property>
        <property name="rotation">0=0;23=0;94=0;102=0</property>
        <property name="compositing">0</property>
        <property name="distort">0</property>
      </filter>
    </entry>
    <entry producer="32" in="0" out="82">
      <filter id="filter36">
        <property name="mlt_service">qtblend</property>
        <property name="kdenlive_id">qtblend</property>
        <property name="tag">qtblend</property>
        <property name="kdenlive_ix">1</property>
        <property name="kdenlive_info"></property>
        <property name="disable"></property>
        <property name="rect">0~=0 0 1920 1080 0;9=0 0 1920 1080 1;59=0 0 1920 1080 1;82=0 0 1920 1080 0</property>
        <property name="rotation">0=0;9=0;59=0;82=0</property>
        <property name="compositing">0</property>
        <property name="distort">0</property>
      </filter>
    </entry>
    <entry producer="33" in="0" out="109">
      <filter id="filter37">
        <property name="mlt_service">qtblend</property>
        <property name="kdenlive_id">qtblend</property>
        <property name="tag">qtblend</property>
        <property name="kdenlive_ix">1</property>
        <property name="kdenlive_info"></property>
        <property name="disable"></property>
        <property name="rect">0~=0 0 1920 1080 0;25=0 0 1920 1080 1;103=0 0 1920 1080 1;109=0 0 1920 1080 0</property>
        <property name="rotation">0=0;25=0;103=0;109=0</property>
        <property name="compositing">0</property>
        <property name="distort">0</property>
      </filter>
    </entry>
    <entry producer="34" in="0" out="72">
      <filter id="filter38">
        <property name="mlt_service">qtblend</property>
        <property name="kdenlive_id">qtblend</property>
        <property name="tag">qtblend</property>
        <property name="kdenlive_ix">1</property>
        <property name="kdenlive_info"></property>
        <property name="disable"></property>
        <property name="rect">0~=0 0 1920 1080 0;6=0 0 1920 1080 1;57=0 0 1920 1080 1;72=0 0 1920 1080 0</property>
        <property name="rotation">0=0;6=0;57=0;72=0</property>
        <property name="compositing">0</property>
        <property name="distort">0</property>
      </filter>
    </entry>
    <blank length="60"/>
    <entry producer="35" in="14" out="119">
      <filter id="filter39">
        <property name="mlt_service">qtblend</property>
        <property name="kdenlive_id">qtblend</property>
        <property name="tag">qtblend</property>
        <property name="kdenlive_ix">1</property>
        <property name="kdenlive_info"></property>
        <property name="disable"></property>
        <property name="rect">14~=0 0 1920 1080 0;36=0 0 1920 1080 1;112=0 0 1920 1080 1;119=0 0 1920 1080 0</property>
        <property name="rotation">14=0;36=0;112=0;119=0</property>
        <property name="compositing">0</property>
        <property name="distort">0</property>
      </filter>
    </entry>
    <entry producer="36" in="0" out="83">
      <filter id="filter40">
        <property name="mlt_service">qtblend</property>
        <property name="kdenlive_id">qtblend</property>
        <property name="tag">qtblend</property>
        <property name="kdenlive_ix">1</property>
        <property name="kdenlive_info"></property>
        <property name="disable"></property>
        <property name="rect">0~=0 0 1920 1080 0;8=0 0 1920 1080 1;65=0 0 1920 1080 1;83=0 0 1920 1080 0</property>
        <property name="rotation">0=0;8=0;65=0;83=0</property>
        <property name="compositing">0</property>
        <property name="distort">0</property>
      </filter>
    </entry>
    <entry producer="37" in="0" out="105">
      <filter id="filter41">
        <property name="mlt_service">qtblend</property>
        <property name="kdenlive_id">qtblend</property>
        <property name="tag">qtblend</property>
        <property name="kdenlive_ix">1</property>
        <property name="kdenlive_info"></property>
        <property name="disable"></property>
        <property name="rect">0~=0 0 1920 1080 0;19=0 0 1920 1080 1;94=0 0 1920 1080 1;105=0 0 1920 1080 0</property>
        <property name="rotation">0=0;19=0;94=0;105=0</property>
        <property name="compositing">0</property>
        <property name="distort">0</property>
      </filter>
    </entry>
    <entry producer="38" in="0" out="73">
      <filter id="filter42">
        <property name="mlt_service">qtblend</property>
        <property name="kdenlive_id">qtblend</property>
        <property name="tag">qtblend</property>
        <property name="kdenlive_ix">1</property>
        <property name="kdenlive_info"></property>
        <property name="disable"></property>
        <property name="rect">0~=0 0 1920 1080 0;7=0 0 1920 1080 1;63=0 0 1920 1080 1;73=0 0 1920 1080 0</property>
        <property name="rotation">0=0;7=0;63=0;73=0</property>
        <property name="compositing">0</property>
        <property name="distort">0</property>
      </filter>
    </entry>
    <blank length="444"/>
    <entry producer="39" in="8" out="105">
      <filter id="filter43">
        <property name="mlt_service">qtblend</property>
        <property name="kdenlive_id">qtblend</property>
        <property name="tag">qtblend</property>
        <property name="kdenlive_ix">1</property>
        <property name="kdenlive_info"></property>
        <property name="disable"></property>
        <property name="rect">8~=0 0 1920 1080 0;24=0 0 1920 1080 1;100=0 0 1920 1080 1;105=0 0 1920 1080 0</property>
        <property name="rotation">8=0;24=0;100=0;105=0</property>
        <property name="compositing">0</property>
        <property name="distort">0</property>
      </filter>
    </entry>
    <entry producer="40" in="0" out="80">
      <filter id="filter44">
        <property name="mlt_service">qtblend</property>
        <property name="kdenlive_id">qtblend</property>
        <property name="tag">qtblend</property>
        <property name="kdenlive_ix">1</property>
        <property name="kdenlive_info"></property>
        <property name="disable"></property>
        <property name="rect">0~=0 0 1920 1080 0;8=0 0 1920 1080 1;64=0 0 1920 1080 1;80=0 0 1920 1080 0</property>
        <property name="rotation">0=0;8=0;64=0;80=0</property>
        <property name="compositing">0</property>
        <property name="distort">0</property>
      </filter>
    </entry>
    <entry producer="41" in="0" out="107">
      <filter id="filter45">
        <property name="mlt_service">qtblend</property>
        <property name="kdenlive_id">qtblend</property>
        <property name="tag">qtblend</property>
        <property name="kdenlive_ix">1</property>
        <property name="kdenlive_info"></property>
        <property name="disable"></property>
        <property name="rect">0~=0 0 1920 1080 0;23=0 0 1920 1080 1;98=0 0 1920 1080 1;107=0 0 1920 1080 0</property>
        <property name="rotation">0=0;23=0;98=0;107=0</property>
        <property name="compositing">0</property>
        <property name="distort">0</property>
      </filter>
    </entry>
    <entry producer="42" in="0" out="69">
      <filter id="filter46">
        <property name="mlt_service">qtblend</property>
        <property name="kdenlive_id">qtblend</property>
        <property name="tag">qtblend</property>
        <property name="kdenlive_ix">1</property>
        <property name="kdenlive_info"></property>
        <property name="disable"></property>
        <property name="rect">0~=0 0 1920 1080 0;11=0 0 1920 1080 1;59=0 0 1920 1080 1;69=0 0 1920 1080 0</property>
        <property name="rotation">0=0;11=0;59=0;69=0</property>
        <property name="compositing">0</property>
        <property name="distort">0</property>
      </filter>
    </entry>
    <blank length="25"/>
    <entry producer="43" in="0" out="94">
      <filter id="filter47">
        <property name="mlt_service">qtblend</property>
        <property name="kdenlive_id">qtblend</property>
        <property name="tag">qtblend</property>
        <property name="kdenlive_ix">1</property>
        <property name="kdenlive_info"></property>
        <property name="disable"></property>
        <property name="rect">0~=0 0 1920 1080 0;12=0 0 1920 1080 1;86=0 0 1920 1080 1;94=0 0 1920 1080 0</property>
        <property name="rotation">0=0;12=0;86=0;94=0</property>
        <property name="compositing">0</property>
        <property name="distort">0</property>
      </filter>
    </entry>
    <entry producer="44" in="0" out="86">
      <filter id="filter48">
        <property name="mlt_service">qtblend</property>
        <property name="kdenlive_id">qtblend</property>
        <property name="tag">qtblend</property>
        <property name="kdenlive_ix">1</property>
        <property name="kdenlive_info"></property>
        <property name="disable"></property>
        <property name="rect">0~=0 0 1920 1080 0;10=0 0 1920 1080 1;68=0 0 1920 1080 1;86=0 0 1920 1080 0</property>
        <property name="rotation">0=0;10=0;68=0;86=0</property>
        <property name="compositing">0</property>
        <property name="distort">0</property>
      </filter>
    </entry>
    <entry producer="45" in="0" out="106">
      <filter id="filter49">
        <property name="mlt_service">qtblend</property>
        <property name="kdenlive_id">qtblend</property>
        <property name="tag">qtblend</property>
        <property name="kdenlive_ix">1</property>
        <property name="kdenlive_info"></property>
        <property name="disable"></property>
        <property name="rect">0~=0 0 1920 1080 0;20=0 0 1920 1080 1;98=0 0 1920 1080 1;106=0 0 1920 1080 0</property>
        <property name="rotation">0=0;20=0;98=0;106=0</property>
        <property name="compositing">0</property>
        <property name="distort">0</property>
      </filter>
    </entry>
    <entry producer="46" in="0" out="90">
      <filter id="filter50">
        <property name="mlt_service">qtblend</property>
        <property name="kdenlive_id">qtblend</property>
        <property name="tag">qtblend</property>
        <property name="kdenlive_ix">1</property>
        <property name="kdenlive_info"></property>
        <property name="disable"></property>
        <property name="rect">0~=0 0 1920 1080 0;10=0 0 1920 1080 1;69=0 0 1920 1080 1;90=0 0 1920 1080 0</property>
        <property name="rotation">0=0;10=0;69=0;90=0</property>
        <property name="compositing">0</property>
        <property name="distort">0</property>
      </filter>
    </entry>
  </playlist>
  <playlist id="timeline_preview"/>
  <tractor id="maintractor" title="Anonymous Submission" global_feed="1" in="0" out="5215">
    <track producer="black_track"/>
    <track producer="playlist2" hide="video"/>
    <track producer="playlist3"/>
    <track producer="playlist1"/>
    <track producer="playlist0"/>
    <track producer="playlist4"/>
    <track producer="timeline_preview" hide="audio"/>
    <transition id="transition0">
      <property name="a_track">0</property>
      <property name="b_track">1</property>
      <property name="mlt_service">mix</property>
      <property name="always_active">1</property>
      <property name="combine">1</property>
      <property name="internal_added">237</property>
    </transition>
    <transition id="transition1">
      <property name="a_track">0</property>
      <property name="b_track">2</property>
      <property name="mlt_service">mix</property>
      <property name="always_active">1</property>
      <property name="combine">1</property>
      <property name="internal_added">237</property>
    </transition>
    <transition id="transition2">
      <property name="a_track">0</property>
      <property name="b_track">3</property>
      <property name="mlt_service">mix</property>
      <property name="always_active">1</property>
      <property name="combine">1</property>
      <property name="internal_added">237</property>
    </transition>
    <transition id="transition3">
      <property name="a_track">0</property>
      <property name="b_track">4</property>
      <property name="mlt_service">mix</property>
      <property name="always_active">1</property>
      <property name="combine">1</property>
      <property name="internal_added">237</property>
    </transition>
    <transition id="transition4">
      <property name="a_track">0</property>
      <property name="b_track">5</property>
      <property name="mlt_service">mix</property>
      <property name="always_active">1</property>
      <property name="combine">1</property>
      <property name="internal_added">237</property>
    </transition>
    <transition id="transition5" in="5190" out="5214">
      <property name="a_track">0</property>
      <property name="b_track">2</property>
      <property name="start">0/0:100%x100%</property>
      <property name="factory">loader</property>
      <property name="aligned">1</property>
      <property name="progressive">1</property>
      <property name="mlt_service">composite</property>
      <property name="automatic">1</property>
      <property name="kdenlive_id">composite</property>
      <property name="force_track">0</property>
      <property name="deinterlace">0</property>
      <property name="distort">0</property>
      <property name="fill">1</property>
      <property name="geometry">0%/0%:100%x100%:100</property>
      <property name="halign">centre</property>
      <property name="luma_invert">0</property>
      <property name="operator">over</property>
      <property name="softness">0</property>
      <property name="valign">middle</property>
    </transition>
    <transition id="transition6">
      <property name="a_track">0</property>
      <property name="b_track">2</property>
      <property name="compositing">0</property>
      <property name="distort">0</property>
      <property name="mlt_service">qtblend</property>
      <property name="always_active">1</property>
      <property name="internal_added">237</property>
    </transition>
    <transition id="transition7">
      <property name="a_track">0</property>
      <property name="b_track">3</property>
      <property name="compositing">0</property>
      <property name="distort">0</property>
      <property name="mlt_service">qtblend</property>
      <property name="always_active">1</property>
      <property name="internal_added">237</property>
    </transition>
    <transition id="transition8">
      <property name="a_track">0</property>
      <property name="b_track">4</property>
      <property name="compositing">0</property>
      <property name="distort">0</property>
      <property name="mlt_service">qtblend</property>
      <property name="always_active">1</property>
      <property name="internal_added">237</property>
    </transition>
    <transition id="transition9">
      <property name="a_track">0</property>
      <property name="b_track">5</property>
      <property name="compositing">0</property>
      <property name="distort">0</property>
      <property name="mlt_service">qtblend</property>
      <property name="always_active">1</property>
      <property name="internal_added">237</property>
    </transition>
  </tractor>
</mlt>
